<?xml version="1.0" standalone="no"?>
<!DOCTYPE svg PUBLIC "-//W3C//DTD SVG 1.1//EN" "http://www.w3.org/Graphics/SVG/1.1/DTD/svg11.dtd" >
<svg xmlns="http://www.w3.org/2000/svg" xmlns:xlink="http://www.w3.org/1999/xlink" version="1.1">
<metadata></metadata>
<defs>
<font id="tangobold" horiz-adv-x="781" >
<font-face units-per-em="2048" ascent="1638" descent="-410" />
<missing-glyph horiz-adv-x="525" />
<glyph horiz-adv-x="0" />
<glyph horiz-adv-x="0" />
<glyph unicode="&#xd;" horiz-adv-x="525" />
<glyph horiz-adv-x="0" />
<glyph unicode="&#x9;" horiz-adv-x="525" />
<glyph horiz-adv-x="0" />
<glyph unicode=" "  horiz-adv-x="525" />
<glyph unicode="&#x09;" horiz-adv-x="525" />
<glyph unicode="&#xa0;" horiz-adv-x="525" />
<glyph unicode="!" horiz-adv-x="420" d="M104 109q0 63 33 98q31 39 86 39q56 0 86 -37q37 -31 37 -96q0 -55 -30 -98q-43 -50 -93 -50q-119 0 -119 144zM233 406l105 1026q10 71 33 114q33 50 100 50l27 -2l61 -2l-254 -1186h-72z" />
<glyph unicode="&#x22;" horiz-adv-x="475" d="M212 1303l17 268q1 43 23 86q21 41 68 41q41 0 69 -27q13 -14 17 -20q12 -21 12 -51q0 -39 -19 -74l-122 -246zM438 1303l19 268q0 39 22 84q23 43 74 43q37 0 66 -29q24 -34 24 -69q0 -41 -16 -74l-123 -246z" />
<glyph unicode="#" horiz-adv-x="1032" d="M48 529l67 182h188l127 491h-220l56 177h218l55 221h94l-56 -221h380l55 221h94l-59 -221h233l-53 -176h-223l-134 -492h248l-65 -182h-227l-54 -211h-96l55 211h-378l-52 -211h-99l55 211h-209zM395 711h383l131 491h-378z" />
<glyph unicode="$" horiz-adv-x="983" d="M16 244l87 29q69 -113 149 -162q35 -23 76 -37q39 -16 86 -23l84 500l-37 12q-125 43 -197 97q-71 51 -94 161v25q-6 25 -8 37q0 94 51 176t144.5 127t222.5 45h31l45 297l86 -6l-43 -299q94 -14 180 -68q29 -14 56.5 -41.5t52.5 -66.5q51 -76 51 -139q0 -52 -54 -74 q-53 8 -80 39q-14 16 -22 28q-10 11 -16 29q-9 18 -13 33q-6 14 -10 39l-14 69q-4 11 -15 17l-63 33q-35 14 -68 20l-69 -426l45 -12q57 -17 69 -21q56 -18 107 -51q88 -45 136 -117q55 -78 55 -178q0 -104 -62 -190q-61 -88 -168 -140q-106 -53 -221 -53h-84l-70 -404h-80 l60 414q-62 16 -111 37q-49 19 -94 47q-47 27 -89 74q-43 45 -92 123zM283 948l4 -30q27 -127 184 -162l54 -12l67 401h-29q-65 0 -141 -27q-35 -14 -57 -28q-25 -17 -45 -43q-37 -43 -37 -99zM506 43h70q82 0 162 37q79 35 121 90q41 53 41 119l-6 49q-15 62 -66.5 100.5 t-147.5 63.5l-96 23z" />
<glyph unicode="%" horiz-adv-x="1323" d="M178 1288q0 66 25 140q8 24 31 78q47 102 133 170q84 67 205 67q45 0 100 -18q227 -84 227 -385q0 -97 -65 -191q-27 -41 -64 -76q-39 -36 -88 -69q-47 -25 -98 -41.5t-98 -16.5q-66 0 -119 29q-55 27 -101 78q-88 100 -88 235zM260 4l998 1723l86 -31l-1008 -1745z M307 1276q0 -90 48 -166q41 -69 114 -84l37 -4q72 0 129 60q55 57 84 145q26 86 26 162q0 112 -34 182q-37 70 -115 86l-41 6q-73 0 -125 -57q-55 -57 -86 -152q-26 -92 -37 -178zM695 299q0 54 14 107q8 30 39 104q45 99 131 168q84 70 205 70q32 0 49 -2q16 -4 53 -17 q82 -28 129 -86q27 -30 45 -61q19 -33 31 -76q24 -74 24 -158q0 -71 -38.5 -147t-98.5 -129q-28 -25 -59 -45q-33 -23 -72 -42q-78 -32 -147 -32q-90 0 -158 49t-107 131q-40 80 -40 166zM824 291q0 -88 45 -162q39 -67 114 -82l47 -6q66 0 123 56q56 53 86 143 q31 88 31 164q0 102 -33 170q-35 65 -88 78q-55 10 -69 10q-80 0 -132 -53q-57 -56 -88 -144q-26 -86 -36 -174z" />
<glyph unicode="&#x26;" horiz-adv-x="1557" d="M99 508q0 94 26.5 183.5t75.5 173.5q51 79 120.5 134.5t157.5 82.5l19 4q-23 16 -37 32q-16 17 -31 37q-43 62 -61 174q0 121 61 217q62 97 168 152q105 53 217 53q47 0 95 -8q45 -8 92 -22q100 -31 162 -95q59 -65 59 -161q0 -39 -14 -58l-50 -20q-116 0 -157 145l2 37 l2 27q0 39 -39 49q-41 8 -78 14t-72 6q-59 0 -106 -22q-49 -25 -90 -72q-74 -90 -74 -223q0 -273 209 -273h152v-81h-140q-63 0 -86 6q-22 4 -47 15q-24 10 -39 16l-51 -25q-111 -47 -184 -189q-74 -141 -74 -292q0 -80 27 -175q26 -79 73 -143q47 -63 111 -96 q49 -25 111 -39q61 -16 129 -16q47 0 100 10q51 10 100 26q99 33 162 101q68 67 86 155q8 31 12 55.5t4 53.5l-2 33l-32 -25q-117 -100 -240 -100l-31 4q-63 6 -125 39q-32 22 -53 41q-20 18 -39 47q-35 49 -35 121q0 121 105 182q102 59 223 59q168 0 260 -116l96 108 q103 101 224 101q102 0 174 -64q43 -33 67 -72q23 -41 37 -106l-63 -47q-19 45 -37 76q-19 28 -39 47q-35 28 -80 28q-66 0 -147 -71l-166 -152q8 -29 10 -55.5t2 -65.5q0 -157 -90 -274t-232 -176q-141 -62 -297 -62q-108 0 -206 30q-93 26 -179 87q-86 59 -137 152 q-71 127 -71 282zM731 617q0 -107 138 -154l24 -4q82 8 139 51q25 19 60 53q35 35 63 70q-30 59 -80 96q-49 41 -167 41q-43 0 -84 -22q-25 -10 -37 -21q-15 -12 -31 -35q-25 -34 -25 -75z" />
<glyph unicode="'" horiz-adv-x="400" d="M243 1153q64 70 105 137q39 68 56 136l-17 -4q-51 10 -78 32q-30 31 -41 99q0 55 37 98q35 47 95 47q24 0 43 -8q18 -10 39 -29q36 -31 36 -80q0 -139 -59 -262t-174 -227z" />
<glyph unicode="(" horiz-adv-x="819" d="M93 289q0 205 66 436q64 232 187 432q121 201 301 346q181 146 404 189l100 16v-65l-145 -47q-158 -54 -318 -238q-168 -192 -278.5 -473t-110.5 -580q0 -71 6 -129q4 -59 25 -161q70 -322 528 -476v-66q-145 0 -290 62q-146 59 -271 184q-127 123 -168 285 q-17 68 -25 136q-11 67 -11 149z" />
<glyph unicode=")" horiz-adv-x="836" d="M-123 -465l146 45q59 20 119 59q57 37 118 95q127 116 229 293q51 84 96 186q39 90 76 209q31 111 47 220.5t16 226.5q0 149 -28 292q-14 80 -74.5 176.5t-152.5 168.5q-98 77 -209 104l-90 23v69q121 0 223 -35q58 -18 105 -41q47 -22 104 -59q56 -39 99 -78t84 -90 q41 -53 71 -109q29 -55 45 -118q33 -127 33 -283q0 -215 -63 -438q-31 -115 -74 -219q-45 -105 -109 -213q-123 -206 -303 -349q-182 -145 -404 -188l-104 -19v72z" />
<glyph unicode="*" horiz-adv-x="656" d="M167 1235q0 17 4 27q4 14 25 41q19 26 52 33l182 38l6 5l6 6l1 -8l-78 8q-23 0 -43 8q-21 6 -40 20q-45 23 -53 74q0 21 6 37t27 39q31 33 74 33q49 0 72 -31q22 -21 43 -68q14 -41 26 -53l7 -6l4 4l10 10v8l4 144q0 41 35 80q37 26 80 26q81 0 81 -82q0 -36 -18 -61 l-95 -119l-2 -6l-2 -4q1 0 1 2q1 -2 6 -2q0 2 -5 8q2 4 7 8l125 111q43 31 90 31q29 0 49 -13q21 -14 31 -34l2 -29q0 -37 -29 -68q-10 -14 -26.5 -24.5t-32.5 -14.5l-180 -34q-15 0 -21 4q-4 2 -4 4t2 4v-4l82 -8q27 -5 45 -9q19 -6 39 -18q53 -27 53 -86q0 -90 -92 -100 q-12 2 -24 8q-15 4 -35.5 14t-38.5 31l-33 47l-18 31q-4 4 -6 8q-5 2 -5 4l-8 -2l2 -88l2 -66q0 -116 -110 -127q-13 0 -29 5.5t-33 15.5q-12 14 -23 30q-10 15 -10 31q0 27 23 66l102 147q9 -2 17 -4q1 -4 3 -8q-10 0 -20 -10l-145 -111q-12 -10 -39 -20q-26 -11 -53 -15 q-21 6 -37 17q-27 18 -35 43q-3 12 -3 22z" />
<glyph unicode="+" horiz-adv-x="1116" d="M108 549l25 174h457l68 471h182l-68 -471h465l-30 -178h-455l-70 -467h-180l67 471h-461z" />
<glyph unicode="," horiz-adv-x="328" d="M55 -301q39 47 70 90q28 41 51 82q13 22 23 51t16 51l-14 -4q-51 8 -80 35q-27 29 -39 95q0 61 37 104q35 47 96 47q115 -16 115 -174q0 -113 -61 -224q-33 -61 -70 -108q-39 -47 -102 -107z" />
<glyph unicode="-" horiz-adv-x="815" d="M139 553l27 166h680l-22 -166h-685z" />
<glyph unicode="." horiz-adv-x="312" d="M82 97q0 59 37 100q35 39 90 39q27 0 47 -8q19 -11 39 -35q35 -37 35 -96q0 -56 -35 -97q-35 -43 -86 -43q-53 0 -90 43t-37 97z" />
<glyph unicode="/" horiz-adv-x="932" d="M30 -29l1052 1756l86 -31l-1059 -1776z" />
<glyph unicode="0" horiz-adv-x="1305" d="M162 514l21 178q14 84 43 154q28 68 79 137q93 127 236 207q143 78 291 78q106 0 164 -23q168 -51 262 -219q94 -170 94 -401q0 -84 -24 -166q-27 -82 -76 -168q-91 -151 -242 -248q-152 -99 -309 -99q-97 0 -174 31q-183 64 -273 208q-92 143 -92 331zM346 506 q0 -51 10.5 -106.5t26.5 -106.5q35 -102 103 -168q65 -67 161 -86l64 -8q110 0 205 76q92 73 157 200q29 56 50 125q21 70 33 146q10 74 10 162q0 108 -25 204q-29 90 -84 152q-59 61 -149 80l-68 6q-113 0 -215 -70q-105 -69 -170.5 -184t-83.5 -236q-10 -43 -16 -92 q-9 -49 -9 -94z" />
<glyph unicode="1" horiz-adv-x="533" d="M186 -31l199 1207l203 125l-213 -1332h-189z" />
<glyph unicode="2" horiz-adv-x="1004" d="M-6 -30l612 442q56 39 103 88q47 47 100 117q88 118 88 235q0 66 -32 125q-35 60 -107 103q-61 34 -129 34q-80 0 -166 -43q-88 -43 -145 -116l-97 -125l-81 20l124 164q54 72 129 127q74 56 164 87q88 28 168 28q88 0 166 -43q43 -25 74 -52q29 -26 51 -67 q47 -76 47 -166q0 -152 -127 -317q-127 -168 -289 -283l-249 -172h669l-149 -186h-924z" />
<glyph unicode="3" horiz-adv-x="1041" d="M61 68q6 26 21 42.5t25 16.5q102 -16 157 -92q17 -22 23 -45l14 -56q4 -37 7.5 -45t48.5 -14q61 -12 135 -12q98 0 188 53q88 53 137 137q54 82 54 181l-4 51q-15 100 -89 172q-76 70 -203 115l-143 63l237 119q60 24 109 67q48 37 74 84q25 54 25 86q0 68 -49.5 111 t-118.5 43q-70 0 -152 -35q-88 -41 -141 -88l-127 -125l-48 68l129 123q46 43 115.5 82t153.5 61q35 12 74 16q39 5 80 5q102 0 174 -43q74 -50 88 -138l4 -41q0 -90 -59 -161q-52 -66 -135 -117l-107 -60l10 -4q119 -57 183 -141q63 -86 88 -205l8 -80q0 -122 -70 -233 q-72 -113 -184 -179q-60 -35 -123.5 -56.5t-124.5 -21.5q-123 0 -221 29q-101 27 -170 94q-68 62 -93 173z" />
<glyph unicode="4" horiz-adv-x="1155" d="M42 238l548 1061l75 -49l-436 -838h620l97 586l191 104l-109 -686h252l-98 -178h-182l-64 -387l-185 -60l66 447h-775z" />
<glyph unicode="5" horiz-adv-x="1053" d="M90 221l64 56l39 -72q53 -78 145 -125q53 -24 98 -36q46 -13 101 -13q92 0 178 51q84 51 131 133t47 176q0 107 -45 181q-47 73 -129 123q-80 43 -178 43q-96 0 -219 -29l-129 -29l139 543h754l-51 -161h-657l-71 -277l78 19q105 20 191 20q141 0 258 -50q61 -24 106 -59 q43 -37 78 -88q70 -94 70 -223t-70 -234.5t-186 -165.5q-117 -59 -260 -59q-162 0 -279 68q-117 65 -203 208z" />
<glyph unicode="6" horiz-adv-x="1297" d="M154 516q0 97 19.5 193t58.5 192q73 195 200 355q125 159 291 270q164 111 361 162l96 22l16 -84q-86 -20 -159 -49q-74 -28 -138 -63q-63 -37 -118 -78q-56 -43 -113 -96q-64 -68 -96 -109q-41 -53 -78 -119q-39 -65 -68.5 -133.5t-48.5 -138.5l-53 27l76 104 q59 82 137 141q39 31 78 52q37 20 94 43q92 32 188 32q101 0 185 -39q86 -34 151 -106q64 -74 94 -158q17 -41 27 -88q8 -49 8 -100q0 -195 -82 -377q-84 -182 -241 -303q-158 -123 -355 -123q-86 0 -166 27q-178 61 -270 204q-45 72 -70 156q-24 84 -24 184zM330 516 q0 -59 10 -106t33 -111q41 -104 117 -174q73 -69 174 -86l69 -6q132 0 240 92q109 92 166 236q55 143 55 276q0 119 -47 232q-47 110 -133 176q-88 65 -205 65q-102 0 -196 -57q-97 -59 -168.5 -164.5t-94.5 -216.5z" />
<glyph unicode="7" horiz-adv-x="996" d="M149 1041l128 264q24 -51 36.5 -65.5t26.5 -16.5h873l-182 -360l-148 -295l-113 -233l-108 -249l-70 -174l-82 -201l-221 -49q94 223 223 480q121 239 281 516l234 407h-746q-22 0 -32 -8q-13 -8 -26 -41z" />
<glyph unicode="8" horiz-adv-x="1176" d="M133 389q0 70 22.5 128.5t65.5 111.5q76 98 211 139l78 23l-12 6q-191 102 -213 332q0 127 72 227q69 100 182 153.5t237 53.5q39 0 80 -2q39 -4 92 -20q91 -23 158 -68q68 -45 113 -113q45 -76 45 -153q0 -158 -92 -261q-80 -94 -226 -147l27 8l10 -8q219 -109 252 -344 l2 -51q0 -125 -84 -230.5t-209 -163.5q-127 -57 -264 -57q-135 0 -256 49q-123 49 -207 149.5t-84 237.5zM300 418q0 -102 53 -186t139 -131q47 -27 94 -39q47 -15 96 -15q101 0 170 21q70 18 123 61q98 78 98 211q0 96 -63 172q-29 37 -70 68t-92 55l-215 92 q-39 -6 -78 -20.5t-76 -34.5q-71 -37 -124 -107q-47 -67 -55 -147zM439 1209q0 -103 66 -162q32 -33 85 -66t119 -63l129 -58q74 9 133 62q63 51 98 133q33 80 33 166q0 72 -47 129q-51 57 -131 90q-82 33 -176 33q-131 0 -219 -70q-90 -70 -90 -194z" />
<glyph unicode="9" horiz-adv-x="1301" d="M141 443q0 92 23 182q22 88 67 194q85 185 240 308q156 120 353 120q114 0 194 -34q166 -60 244 -197t78 -328q0 -139 -50 -370q-28 -127 -102 -252q-76 -128 -186 -236q-51 -51 -119 -99.5t-135 -87.5q-70 -41 -152 -73q-84 -35 -170 -58l-102 -22l-15 84 q168 39 297 110q127 72 236 178.5t176 227.5l33 60l-8 -8q-97 -95 -211.5 -148.5t-231.5 -53.5q-147 0 -274 99q-185 139 -185 404zM307 547q0 -154 66 -272.5t197 -169.5q34 -11 57 -15q20 -4 63 -8q39 0 76 10q35 9 76 28.5t76 43t65 55.5q31 29 60 68q28 37 50.5 78 t39.5 84q16 41 24 84q9 43 13 78q4 32 4 61q0 90 -23 174q-14 49 -26 82q-15 33 -37 70q-25 36 -47 63q-25 27 -58 49q-63 39 -139 51l-39 5q-72 0 -149 -37q-60 -33 -99 -62q-22 -18 -55 -51q-35 -35 -66 -72q-30 -39 -55 -86q-45 -88 -61 -186z" />
<glyph unicode=":" horiz-adv-x="357" d="M78 113q0 31 8 53q6 23 25 43q33 41 90 41q53 0 90 -37q37 -39 37 -100q0 -60 -37 -100q-37 -44 -90 -44q-51 0 -86 44q-37 40 -37 100zM185 789q0 59 36 100q35 39 91 39q51 0 92 -41q35 -41 35 -98q0 -58 -37 -99t-90 -41q-54 0 -91 41q-36 41 -36 99z" />
<glyph unicode=";" horiz-adv-x="353" d="M69 -299q126 143 163 268h-19q-51 0 -78 35q-30 31 -41 101q0 53 39 98q37 43 90 43q23 0 43 -8q19 -10 39 -29q27 -29 37 -76l4 -53q0 -41 -6 -78t-22 -78q-25 -57 -35 -76q-19 -35 -45 -71q-29 -39 -53 -68q-35 -41 -80 -80zM205 793q0 59 37 98q35 39 86 39 q53 0 90 -37q37 -39 37 -100q0 -58 -37 -98.5t-90 -40.5q-51 0 -90 45q-10 12 -19 28q-14 29 -14 66z" />
<glyph unicode="&#x3c;" horiz-adv-x="1176" d="M143 559l23 152l1176 530l-33 -200l-902 -414l788 -389l-23 -182z" />
<glyph unicode="=" horiz-adv-x="1028" d="M114 426l28 164h959l-21 -164h-966zM151 678l27 164h957l-21 -164h-963z" />
<glyph unicode="&#x3e;" horiz-adv-x="1155" d="M59 60l27 190l904 391l-787 408l31 190l1022 -520l-22 -156z" />
<glyph unicode="?" horiz-adv-x="772" d="M197 1225q14 135 74 209q53 74 147 121q94 41 209 41q137 -19 225 -99q89 -80 111 -215q0 -200 -195 -377l-262 -239l-51 -60q-8 -12 -12 -53q0 -35 10 -57q10 -25 47 -66l-61 -61q-84 113 -84 203q0 86 28 143q27 55 82 113l213 219q47 45 84 110q39 60 39 127 q0 84 -57 146q-60 61 -150 71q-76 0 -147 -36q-68 -39 -115 -101q-20 -31 -33 -59q-12 -31 -20 -80h-82zM266 125q0 133 140 133q30 -6 47 -14q16 -10 31 -33q26 -37 26 -82q0 -55 -31 -98q-22 -27 -47.5 -41.5t-76.5 -14.5q0 12 -2 27v-21h26q-22 0 -43 9q-20 8 -41 39 q-29 39 -29 96z" />
<glyph unicode="@" horiz-adv-x="1565" d="M150 674q0 78 23 162q22 82 63 166q73 162 194 284q62 64 129 111q68 46 152 82q151 72 334 72q157 0 303 -63q145 -66 246 -193q98 -127 98 -287q0 -158 -79 -318q-42 -86 -93 -149.5t-127 -118.5q-143 -108 -320 -108q-69 0 -108 39q-41 36 -47 102l12 63l55 -24 q-129 -176 -288 -176l-41 6l-41 8q-47 12 -82 37q-37 22 -64 61q-51 82 -51 174q0 39 8 78q6 37 21 72q43 115 125 203q41 45 88 80q45 34 102 65q105 55 207 55l61 -6q74 -16 107 -80l31 72h243l-254 -616l-16 -43l-8 -37l4 -6l20 -2q27 0 54 14q24 12 67 45q74 65 142 160 q28 47 51 94t31 90q20 84 20 149q0 121 -70 211q-69 91 -184 140q-115 47 -236 47q-143 0 -266 -57q-125 -58 -219 -156q-94 -101 -151 -232q-29 -63 -45 -129q-16 -65 -23 -137q0 -125 56 -239q26 -54 67 -99q39 -47 90 -84q102 -71 231 -90l47 -6l56 -4q106 0 213 41 q57 22 100 43q41 20 86 53q80 57 125 117l35 45h207l-67 -86q-76 -121 -195 -207t-256 -125q-64 -18 -138 -31q-73 -12 -143 -12l-92 8q-168 15 -307.5 111t-212.5 240q-39 75 -59 155q-21 78 -21 166zM652 529q0 -70 49 -86l39 -13q120 15 243 275q70 147 70 235 q0 41 -19 68q-18 26 -51 26q-18 0 -39 -8q-20 -8 -41 -26q-55 -41 -94 -95q-14 -20 -41 -61q-26 -43 -37 -61q-34 -64 -56 -129q-23 -68 -23 -125z" />
<glyph unicode="A" horiz-adv-x="1481" d="M5 166l85 47q9 -86 33 -123q23 -39 68 -47q157 0 198 223l65 371h-209v90h223l93 500q12 57 31 102q16 43 49 88q27 43 62 80t80 72q84 66 184 98q47 19 96 27t101 8q86 0 163 -29q78 -28 125 -88q47 -59 47 -153v-37l-92 -668h152v-86h-164l-59 -395l-9 -92q0 -19 4 -35 q2 -18 11 -33q8 -14 24 -14q39 0 58 35q18 26 31.5 57t35.5 90l78 -31q-55 -141 -115 -202q-61 -64 -137 -64q-139 0 -177 154l17 133l56 397h-590l-72 -375q-26 -131 -119 -219q-92 -90 -204 -90l-48 4q-122 18 -156 140zM637 723h592l80 522q20 97 20 164q0 94 -55 157.5 t-149 63.5q-60 0 -125.5 -28.5t-122.5 -79.5q-33 -29 -51 -51q-19 -25 -39 -60q-21 -37 -33 -71.5t-19 -71.5z" />
<glyph unicode="B" horiz-adv-x="1424" d="M-4 27l193 43l88 14l20 164l148 1049q8 63 8 114q0 80 -17 135q-16 41 -43 48l-24 4q-45 0 -94 -43q-49 -45 -78 -115q-35 -66 -35 -139l8 -58l19 -90l-80 -32l-19 92l-4 39l-4 32q0 52 11.5 101t33 100t51.5 88q31 37 72 70q82 59 182 59q54 0 93 -20q36 -21 63 -60 q25 -41 37 -84q10 -43 10 -98v-53l-45 -299l-139 -1014l14 -2l8 -2l105 743q24 193 80 359q53 166 127 284q34 58 80 107q43 47 90 80q98 67 209 67q106 0 192 -57q86 -59 137 -156q49 -96 49 -196q0 -262 -274 -424l-47 -29q41 -22 80 -53q39 -33 71 -74q85 -104 99 -242 l4 -63q0 -160 -88 -268.5t-223 -164.5q-138 -57 -295 -57l-119 6l-336 58l-61 4q-160 0 -312 -58zM555 53q66 -12 127 -22q62 -12 131 -21l60 -4q106 0 204 43q99 43 156 131q60 82 60 201q0 84 -39 172q-41 88 -113 144q-72 53 -156 53l-49 -4l-69 -17v84l145 37 q88 25 149 58q62 30 118 83q100 97 100 240q0 80 -33 162q-35 82 -101 131q-65 49 -145 49q-111 0 -201 -115.5t-149 -296.5q-31 -96 -49 -178q-21 -84 -33 -178z" />
<glyph unicode="C" horiz-adv-x="1141" d="M113 469l4 84l61 504q19 184 117 336q96 149 243.5 231t305.5 82q59 0 112.5 -8t106.5 -29q101 -41 178 -161q39 -62 60 -142q18 -80 18 -182q0 -131 -41 -250q-43 -119 -127 -196.5t-205 -77.5q-30 0 -88 10q-118 25 -178 137q-59 113 -59 262q0 49 11 95q4 22 22 69 q18 45 49 82q28 35 104 109v-113q-59 -72 -79 -123q-21 -53 -21 -133q0 -119 49 -209q51 -86 139 -98l45 -4q92 0 152 61q65 64 104 168q33 115 33 215q0 53 -10 109q-10 53 -29 106q-39 98 -113 156q-81 63 -188 63q-121 0 -229 -59q-109 -62 -183 -168q-75 -109 -94 -250 l-67 -547l-13 -129q0 -143 62 -258q59 -117 176 -166q68 -35 151 -35q103 0 199 50q94 47 166 141q33 45 56.5 99.5t37.5 131.5l86 -14q-16 -90 -41 -154q-26 -63 -67 -118q-74 -103 -195 -163.5t-258 -60.5q-149 0 -276 62.5t-207 191.5q-80 127 -80 293z" />
<glyph unicode="D" horiz-adv-x="1553" d="M-2 885q0 178 111 397q67 131 192 228q123 94 279 143q153 49 317 49q101 0 203 -20q100 -23 180 -58q82 -41 160 -102q72 -62 119 -145q61 -103 86 -199q26 -88 26 -221l-4 -172q0 -199 -32 -344q-35 -148 -146.5 -273t-339.5 -196q-143 -45 -268 -45h-35h-27 q-20 4 -28 4l-121 20l-123 20l-94 6q-109 0 -262 -44l-64 63q84 27 125 39q41 10 60 14q16 4 47 7q28 2 59 6l168 1022q25 147 104 258q45 59 101 102q53 41 149 82l15 -78l-56 -49q-28 -25 -39 -41q-53 -82 -73 -203l-13 -88l-168 -1018l105 -22q76 -21 170 -21 q127 0 235 43q193 80 273 260q87 189 87 445l4 96q0 182 -30 301q-33 117 -133 238q-57 65 -135 112q-82 45 -166 66q-41 10 -88 16q-49 6 -96 6q-197 0 -369 -92q-84 -47 -154 -110q-69 -66 -118 -146q-51 -82 -80 -172t-29 -182q0 -170 133 -385l-59 -72 q-84 144 -121 249.5t-37 205.5z" />
<glyph unicode="E" horiz-adv-x="1092" d="M57 445q0 114 39 223q31 108 105 190q65 82 176 119l25 8q-136 113 -136 295q0 123 72 226q39 51 84 88q43 34 103 61q110 51 235 51q90 0 182 -30q54 -21 89.5 -41.5t70.5 -57.5q66 -71 66 -168v-35q0 -6 4 -6h2q4 0 16 15q-35 0 -51 -29q-16 -31 -37 -39 q-68 10 -111 72q-45 61 -57 174l4 22q-33 27 -73 37q-44 10 -97 10q-82 0 -153 -47q-68 -41 -113 -116q-20 -39 -33 -80q-14 -43 -14 -82v-29v-22q-4 -15 -4 -21q0 -55 14 -102q14 -49 39 -88q35 -41 90 -58q53 -18 127 -18l121 6v-88h-141h-88q-23 6 -37 10q-33 10 -78 31 q-86 -41 -135 -109q-60 -79 -82.5 -172.5t-22.5 -203.5q0 -111 43 -201q37 -82 129 -139q52 -33 111 -52q59 -18 129 -18q127 0 235 55q56 29 97 66q39 35 75 90q37 53 55.5 107.5t18.5 129.5h82q0 -98 -26.5 -172.5t-71.5 -138.5q-82 -117 -209 -174q-64 -33 -131.5 -50.5 t-138.5 -17.5h-13l-28 -2q-64 0 -111 6q-49 6 -102 25q-52 14 -93 37q-43 23 -86 57q-81 66 -121 154q-18 47 -31.5 112.5t-13.5 129.5z" />
<glyph unicode="F" horiz-adv-x="908" d="M10 23q39 8 99 18q59 8 84 8l86 592h-211l14 90h215l76 498q29 158 106 268q78 111 222 164l39 17q28 12 73 18q43 6 84 6q62 0 83.5 -4t60.5 -20q77 -29 116 -76q46 -47 58 -123q0 -137 -61 -234q-35 -55 -82 -81.5t-125 -26.5q0 14 6 14q4 0 19 -10l-125 6v76h69 q27 0 56 24q36 31 59 70q22 45 22 86q0 62 -29.5 111t-79.5 80q-49 28 -108 28q-68 0 -121 -37q-55 -39 -98 -106q-21 -31 -33 -64.5t-16 -70.5l-91 -609h400l28 189h87l-70 -481l-84 -7l27 205h-401l-91 -588q82 0 158 -8q75 -10 166 -30l-80 -71q-64 13 -138.5 19 t-138.5 6q-155 0 -330 -31v85z" />
<glyph unicode="G" horiz-adv-x="1336" d="M-35 -156q0 49 12 109q42 154 190.5 218.5t344.5 64.5q109 0 207 -37t211 -125l-49 -61l-105 67q-55 37 -120 54q-68 16 -148 16q-143 0 -246 -64q-102 -63 -114 -172l-4 -58q0 -149 102 -243q100 -95 295 -95h29q65 0 118 12q52 10 105 35q88 44 139 109q55 64 86 152 q29 88 43 203l29 184l8 78l10 96q6 47 8 54q11 24 13 34l6 21q-80 -31 -172 -47q-94 -19 -197 -19q-55 9 -100 9q-60 0 -119 16q-61 16 -121 43q-59 27 -104 65q-47 37 -90 88.5t-65 129.5q-25 77 -25 184q0 123 35 243.5t104 229.5q69 106 168 166q35 22 82 43q45 18 84 29 q75 22 178 22l158 -6q176 -19 321 -103q143 -86 143 -249q0 -33 -12 -45q-12 -21 -33 -25l-32 -12q-39 4 -62 16q-22 10 -37 31q-24 31 -45 100l2 45l2 39l-2 19v14q-10 20 -45 33q-16 8 -51 20t-68 19q-88 20 -184 20q-98 0 -166 -20q-33 -9 -61.5 -23t-50.5 -33 q-103 -96 -158 -225q-25 -55 -41 -127q-18 -74 -25 -141l-2 -66q0 -190 88 -301q88 -113 283 -139l109 -12q57 0 108 10q51 8 113 26q59 19 114 48q56 26 101 57l98 63l59 -47l-43 -80l-28 -55l-21 -53q-12 -39 -24 -113q-13 -76 -25 -166l-35 -264q-10 -76 -63 -187 q-55 -112 -164 -194q-96 -68 -221 -103q-127 -37 -264 -37q-146 0 -271 43q-127 41 -209 136q-84 94 -84 233z" />
<glyph unicode="H" horiz-adv-x="1340" d="M104 1434l64 117q25 47 51 84q11 12 29 30q18 19 37 29q41 25 92 25q158 0 158 -175l-8 -108l-87 -549h649l132 819h185l-131 -819h161l-10 -94l-166 5l-121 -753l-8 -49q0 -129 84 -146q57 0 96 57.5t84 186.5l76 -36l-61 -159q-31 -71 -83 -127q-53 -55 -139 -55 q-111 0 -174 76q-63 74 -63 182l4 33l2 31l110 757h-649l-127 -827h-185l133 827h-114v86l125 1l96 547q4 30 6 59q2 27 2 43q0 66 -22 70q-18 -4 -37 -17q-18 -14 -39 -45q-8 -12 -16 -28q-10 -17 -19 -31q-6 -21 -41 -80z" />
<glyph unicode="I" horiz-adv-x="541" d="M1 33q49 16 92 26.5t76 12.5l226 1544l-162 -20v75q66 13 132 19q63 6 104 6q68 0 133 -8q66 -8 162 -31l-18 -80q-49 12 -80 21q-57 14 -90 14l-226 -1538l27 -4q20 -4 36 -6q17 -4 27 -8l90 -19l-18 -78q-71 14 -135.5 20t-112.5 6q-63 0 -106 -4q-46 -4 -157 -22v74z " />
<glyph unicode="J" horiz-adv-x="525" d="M-337 -318h86q11 -53 21 -75q8 -25 29 -50q18 -26 59 -26q111 0 177 84q64 84 82 207l279 1800h7l-65 -6q-49 -6 -105 -6v70q130 22 232 22q131 0 299 -37l-18 -73l-119 16l-51 8l-277 -1780q-20 -107 -82 -195q-61 -88 -155 -139q-97 -53 -208 -53q-80 12 -121 61 q-20 29 -39 82q-21 53 -31 90z" />
<glyph unicode="K" horiz-adv-x="1372" d="M9 33q46 18 99 31q51 10 65 12l234 1536l-151 -18l-17 75q72 15 134 21q59 6 106 6q68 0 133.5 -8t171.5 -33l-34 -72l-80 13l-64 10l-16 2l-117 -746h82q184 0 272 58q60 45 88 102q27 58 39 131l33 178q15 70 25 105q10 33 33 74q110 204 340 204q47 0 84 -32 q16 -17 26 -37q8 -23 8 -47q0 -43 -26 -82q-25 -44 -76 -44q-92 0 -115 89q-2 6 -2 14v8q0 11 4 27l5 18h14q2 -8 6 -14l-20 8q-21 0 -48 -22q-26 -25 -45 -60q-20 -37 -34 -92q-15 -57 -27 -139q-12 -84 -23 -131q-10 -47 -27 -103q-24 -81 -116 -161q-46 -39 -86 -64 l-91 -45l97 -229q24 -58 55 -113q29 -55 72 -119q82 -125 166 -207q41 -38 71.5 -57.5t55.5 -19.5q25 2 47 16q8 6 21 18q12 13 22 25l64 72l77 -41q-53 -60 -98 -109q-33 -33 -53 -54q-47 -36 -135 -51q-90 0 -168 57.5t-148 150.5q-69 92 -118 188q-33 59 -68 133 q-23 47 -45 94l-98 219h-146l-109 -708q47 -4 90 -12.5t90 -24.5l-18 -74q-75 14 -143 20t-117 6q-61 0 -104.5 -4t-146.5 -22v74z" />
<glyph unicode="L" horiz-adv-x="1024" d="M-23 23q113 129 166 223q31 57 50.5 102t33.5 104.5t27 115.5q10 53 18 116l33 260q11 74 23 133q10 58 27 113q10 37 22 78t33 96q12 29 24 53q11 25 23 43q12 19 37 46q22 24 53 53q62 55 156 102q49 21 100 33t105 12q227 0 227 -157q0 -52 -35 -91q-35 -41 -84 -41 q-53 0 -96 39t-43 93q0 14 4 29.5t18 33.5l11 18l-13 -8q-39 0 -67 -6q-31 -6 -66 -20q-67 -29 -112.5 -95.5t-77.5 -158.5q-9 -26 -21 -69q-12 -45 -28 -123l-37 -242l-25 -186q-11 -95 -31 -174q-23 -82 -55 -156q-62 -127 -152 -248h87q59 0 206 -4q148 -4 177 -4l251 -8 q31 18 84 65q33 28 54 49q32 31 51 53l59 -57l-301 -287l-328 19l-208 4q-189 0 -380 -21v70z" />
<glyph unicode="M" horiz-adv-x="1817" d="M65 1174v59q0 47 11 100q10 54 28 109q36 104 114.5 182t193.5 78q63 0 100 -49q35 -51 35 -145l-4 -64q0 -22 -4 -45q-4 -22 -6 -39l-11 -74l-129 -929l84 352q20 82 43 164q6 22 52 168q30 86 59 159q29 74 66 156q36 80 71 135q33 53 82 109q92 100 191 100l39 -4 q106 -20 106 -223q0 -121 -39 -402l-88 -641l31 135q35 146 70.5 264.5t82.5 250.5q88 247 213 438q123 190 265 190q32 0 49 -6q113 -22 113 -237q0 -56 -12.5 -158.5t-34.5 -245.5l-160 -883l-4 -30l-4 -35q2 -23 5 -43l19 -2q33 0 67 39q33 37 78 114l33 66l78 -29 l-49 -96q-41 -84 -113 -152q-74 -70 -153 -70q-64 0 -109 50q-21 29 -28 53q-10 25 -10 60l10 67l10 62l164 989q29 184 29 256q0 49 -5 74q-6 22 -23 26q-41 0 -79.5 -37t-90.5 -114q-51 -78 -98 -179.5t-92 -220.5q-86 -241 -135 -456l-121 -521q-27 -117 -131 -117 q-39 0 -70 47q-8 15 -12 34q-6 16 -12 49l4 28l24 162l136 1049l6 53l6 59l4 56q0 55 -4 77q-6 23 -29 23q-29 0 -57 -27q-31 -28 -72 -88q-80 -121 -156 -311q-36 -88 -63 -170q-29 -84 -43 -152l-174 -739q-16 -67 -35 -103q-24 -53 -84 -53q-49 0 -82 43q-33 44 -33 123 l4 45l23 160l149 1047l12 92l11 92q0 31 -12 53q-10 13 -33 13q-37 0 -80 -50q-51 -57 -82 -143q-30 -88 -30 -168v-59h-75z" />
<glyph unicode="N" horiz-adv-x="1297" d="M90 1333v82q0 70 35 138q35 65 96 108q60 41 123 41l43 -4q52 -10 80 -68q29 -59 29 -161q0 -84 -33 -289l-141 -899l217 665q49 150 117 281q67 129 153 238q84 108 185 176q98 65 202 65q49 0 84 -8t66 -31q31 -16 49 -57q16 -43 16 -111q0 -45 -10 -125 q-10 -79 -37 -200q-6 -31 -14 -76q-10 -47 -12 -53l-170 -867l-4 -34l-5 -33q2 -17 2 -23t3 -16l20 -6q39 0 74 45q16 22 55 88q25 43 51 88l78 -31l-63 -112q-27 -56 -60 -95q-31 -43 -80 -78q-51 -35 -106 -35q-142 0 -160 161l10 71l11 66l200 983l13 65l14 101 q8 49 8 94q0 53 -22 86q-25 31 -70 31q-76 0 -176 -93q-103 -94 -193 -243.5t-135 -280.5l-289 -895q-20 -63 -47 -99q-33 -51 -94 -51q-82 0 -94 134l8 76l25 155l172 1047q8 59 12 102t4 82q0 35 -2 49q-6 17 -6 23q-4 10 -23 10q-22 0 -53 -27q-33 -26 -55 -69 q-25 -43 -25 -90v-91h-76z" />
<glyph unicode="O" horiz-adv-x="1784" d="M112 742q0 151 41 292q41 142 124 271q82 127 211 223t305 143q57 19 131 27q72 8 147 8q82 0 137.5 -6t122.5 -29q119 -32 228 -108q108 -70 184 -178q39 -56 70 -119q31 -66 51 -137q35 -105 35 -252q0 -232 -108 -447q-111 -215 -298 -346q-96 -71 -196 -108 q-101 -39 -211 -39l-103 -3q-116 0 -192 9.5t-158 33.5q-149 44 -256 132q-106 86 -166 205q-31 63 -54 135q-22 69 -32 149zM316 762l4 -84q13 -135 51 -246q39 -110 110.5 -200t188.5 -149q61 -29 129 -45q68 -19 143 -19q211 0 387 108q177 109 279 298.5t102 414.5 q0 80 -12 160q-20 141 -86 258q-31 57 -70 104t-90 90q-92 76 -219 119t-264 43q-98 0 -182 -31.5t-162 -97.5q-148 -119 -227 -315q-82 -197 -82 -408z" />
<glyph unicode="P" horiz-adv-x="1389" d="M30 23l93 12l71 8l56 6l184 1235q6 49 6 131q0 109 -20 138q-22 28 -37 28l-30 4q-50 0 -97 -43q-49 -45 -80 -122q-14 -39 -23 -76q-10 -39 -10 -76l4 -29l12 -106h-81l-13 82l-4 61q0 57 8 103q9 43 31 94q23 49 54 88q29 39 67 74q80 61 179 61q118 0 168 -100 q20 -43 32 -97q10 -53 10 -110l-6 -107q0 -28 -4 -61q-6 -33 -10 -51l-15 -107l-149 -1010h26l142 996q17 131 78 258q59 125 145 213t187 137q49 27 98 39q47 10 102 10q111 0 193 -51q129 -84 129 -328q0 -20 -2 -59q-2 -41 -8 -100l-62 -379q-16 -99 -45.5 -183 t-77.5 -149q-94 -137 -272 -172l-39 -4l-39 -4q-225 0 -366 164l-19 20l-62 -410q51 0 103 -8q84 -16 135 -26l-39 -83q-69 17 -149 27q-82 8 -168 8q-68 0 -145 -6q-80 -8 -224 -23zM616 563l53 -63q29 -33 60 -57.5t64 -42.5q65 -33 149 -33q142 0 228 131t112 326l60 417 q8 64 8 115q0 66 -27 119q-26 53 -76 80q-49 30 -114 30q-99 0 -197 -79q-49 -39 -92 -95q-45 -55 -82 -125q-70 -133 -88 -282z" />
<glyph unicode="Q" horiz-adv-x="1792" d="M98 768q0 207 86 393q85 187 245.5 324t359.5 195q170 43 311 43q121 0 229 -29q107 -28 203 -88q94 -62 178 -158q185 -207 185 -528q0 -82 -12 -160t-41 -164q-50 -162 -146 -299q-98 -139 -229 -227q-107 -76 -236 -105l64 -76q24 -31 42.5 -53.5t41.5 -42.5 q20 -23 36 -37q17 -14 41 -29q45 -20 76 -20q94 0 199 135l63 76l50 -66l-43 -59q-166 -211 -341 -211q-75 0 -155 49q-74 50 -139 123q-66 74 -138 183l-51 -2l-74 -3q-303 0 -510 165l-77 -148l-70 68l80 133q-45 53 -76 102q-33 47 -57 96q-27 48 -46 111q-18 61 -35 141 q-6 54 -10 94.5t-4 73.5zM303 768l4 -86q0 -45 7 -82q0 -2 16 -75q6 -39 16 -66q19 -45 27 -68l55 -102l68 76q43 39 109.5 66.5t154.5 27.5q72 0 129 -41q51 -33 84 -78q16 -20 38.5 -51t49.5 -74l115 -168q162 54 276 162q123 121 188.5 289t65.5 350q0 184 -63 363 q-19 49 -37 90q-21 39 -47 78q-47 69 -121 131q-35 26 -76 49q-43 23 -94 41q-96 33 -219 33h-23h-16q-86 0 -162 -20q-76 -23 -149 -64q-131 -70 -217 -189q-89 -119 -136 -274q-18 -72 -30.5 -156t-12.5 -162zM473 209q58 -61 123 -102q37 -25 72 -39q33 -17 84 -30 q86 -23 188 -23h35l-135 193q-88 126 -201 126q-41 0 -63 -16q-27 -15 -58 -49z" />
<glyph unicode="R" horiz-adv-x="1460" d="M34 35q53 6 123 16q68 11 92 11l177 1243q4 26 6 55t2 51q0 82 -18 142q-16 43 -41 49l-27 4q-49 0 -96 -43q-49 -49 -80 -117q-15 -33 -23 -69q-10 -37 -10 -72l8 -53l20 -86l-83 -31l-15 92l-4 37l-4 33q0 100 43 194q41 94 119 156q76 59 185 59q100 0 157 -80 q49 -71 49 -174l-2 -32l-2 -25l-43 -315l-141 -1012h18l109 751q17 127 48.5 240t78.5 217q90 203 223 322q131 116 273 116q84 0 157 -41q74 -43 125 -118q48 -76 62 -154l6 -102q0 -121 -45 -224q-23 -47 -56 -86q-33 -41 -82 -81q-73 -60 -209 -113q-45 -17 -112 -35 q-70 -20 -123 -31l256 -495q47 -94 95 -154q32 -45 88 -45l26 4q39 8 72 35t63 82l70 -55q-109 -165 -248 -165q-217 0 -309 189l-341 678q117 0 199 10q82 11 166 33q150 45 256 143q97 91 97 244l-8 80q-15 121 -82 190q-70 70 -166 70q-47 0 -96 -18q-50 -21 -95 -60 q-102 -84 -178 -250q-41 -84 -69 -192q-29 -111 -48 -238l-109 -751q78 0 238 -37l-36 -78q-185 28 -363 28q-143 0 -326 -24z" />
<glyph unicode="S" horiz-adv-x="1239" d="M45 391q4 5 6 7h-2v-13q0 94 60 162q26 29 69 59q41 31 103 64l67 -53q-84 -64 -104 -86q-18 -15 -25 -54q0 -100 70 -204q33 -54 80 -95q45 -43 102 -77q111 -68 217 -68q7 2 13 2h8q49 0 102 10q51 11 101 27q94 33 155 100q62 66 70 156q0 51 -8 88q-8 35 -33 74 q-41 69 -106 123q-35 26 -72 49q-39 22 -100 55l-392 209q-217 119 -217 369q0 65 25 118q22 52 67 103q76 90 199 139q59 25 129 41q68 14 129 14q143 0 270 -43q127 -45 203 -129q76 -86 76 -194q0 -45 -12 -84t-37 -82q-27 -43 -60.5 -72t-97.5 -59l-31 63q35 39 49 76 q15 37 15 78q0 94 -61 174q-27 37 -72 72q-45 32 -97 55q-104 49 -217 49q-49 -4 -88 -14q-41 -11 -82 -29q-80 -33 -125 -94q-26 -33 -36 -64q-13 -30 -13 -73q0 -174 228 -289l344 -172q111 -53 187 -109q73 -57 124 -137q27 -43 43 -88q15 -47 15 -98q0 -148 -78 -252 q-80 -107 -211 -170q-134 -66 -273 -81l-55 -2q-111 0 -217 33q-107 31 -197 87q-47 30 -80 61q-32 31 -67 78q-60 84 -60 190z" />
<glyph unicode="T" horiz-adv-x="1065" d="M41 1184q0 51 12 102q11 52 33 103q39 94 109 168q69 71 168 110q90 39 205 39q38 0 153 -14l512 -121l60 -12q45 6 65 30q31 23 62 103h83l-59 -135q-10 -21 -22 -41q-15 -23 -27 -39q-31 -47 -82 -62l-33 -6l-28 -2q-37 0 -50.5 2t-37.5 8q-27 7 -46 11q-18 4 -57 16 l-41 10q-14 -28 -22 -49q-11 -20 -19 -47q-8 -29 -16 -90t-10 -76l-17 -119l-155 -1011q32 0 102 -11q68 -10 123 -18l-35 -74q-158 14 -283 14q-34 0 -135 -4q-100 -6 -155 -6v76q63 12 79 14q17 3 50 3l63 6l176 1075q31 223 139 342l-245 63q-84 18 -144 18 q-118 0 -200 -51q-88 -49 -142 -139q-28 -45 -42 -94q-17 -49 -17 -100q0 -80 37 -148q35 -69 123 -155l-92 -31q-142 170 -142 342z" />
<glyph unicode="U" horiz-adv-x="1481" d="M99 1297q0 61 8 98q6 35 24 92q25 90 78 156q51 63 131 63q84 0 125 -53q45 -51 45 -133q0 -49 -8 -115l-159 -960q-8 -35 -13.5 -80t-5.5 -109q0 -143 53 -174q57 -37 123 -43q68 0 145 41q41 23 76 49q33 25 74 66q78 84 137 190q59 107 100 240l271 938q8 26 20 55 q13 27 23 45q35 47 98 47q35 0 59 -37q23 -36 23 -112q0 -49 -18 -209l-156 -1049l-21 -170q0 -69 27 -77l19 -5q49 0 88 64q24 41 42.5 86t30.5 106h80q-37 -178 -100 -274q-70 -107 -182 -107q-93 0 -142 64q-49 61 -49 154l14 118l15 105l157 1001l-215 -755 q-39 -150 -110 -277q-37 -65 -74 -117q-37 -51 -84 -98q-49 -47 -92 -80q-45 -33 -98 -60q-105 -49 -205 -49l-62 4q-125 21 -182 113q-59 93 -59 246q0 72 15 180q14 86 20 131l149 857q8 32 8 65q0 47 -22 59l-21 5q-51 0 -76.5 -76t-36 -117t-10.5 -102h-77z" />
<glyph unicode="V" horiz-adv-x="1268" d="M78 1168v104q0 92 37 195q37 100 99.5 167.5t146.5 67.5q75 0 121 -45q45 -47 61 -123l49 -239l96 129q21 30 52 65q30 33 67 66q68 62 152 103q84 38 174 38q110 0 207 -68q86 -61 139 -170q51 -108 51 -215q0 -151 -67 -309q-29 -74 -72 -153q-45 -80 -98 -164 q-60 -86 -109 -152q-51 -67 -121 -153l-366 -441l-220 1098l-118 -215l-27 141l119 199l-86 392q-2 30 -27 65q-16 23 -41 23q-16 0 -28 -11q-15 -10 -33 -32q-35 -50 -59 -124q-8 -30 -14 -67q-7 -39 -7 -68v-84zM617 1178l207 -1022l163 201q76 88 146 188q53 84 63 100 q29 47 58 101q26 53 47 104q20 49 37 103q28 108 28 196q0 94 -41 191q-43 96 -118.5 156.5t-165.5 60.5q-74 0 -138 -39q-32 -18 -61 -45q-29 -29 -57 -68z" />
<glyph unicode="W" horiz-adv-x="1749" d="M73 1190v98q0 84 31 181q15 51 36 92q18 39 49 74q59 71 139 71q74 0 123 -53q43 -47 59 -119l248 -1257l241 585l-114 571q-8 54 -25 84q-18 31 -49 31q-41 0 -71 -75q-38 -90 -38 -170l6 -117h-88v94q0 90 32 183q26 98 86 167q57 68 139 68q71 0 118.5 -47t63.5 -121 l80 -385l94 182q84 166 192.5 270.5t231.5 104.5q107 0 193 -72q84 -71 125 -167q40 -99 40 -195q0 -66 -8 -117t-30.5 -123.5t-44.5 -132.5q-25 -59 -58 -121.5t-67 -124.5q-37 -61 -74 -118q-39 -60 -76 -109q-39 -51 -80 -102l-364 -443l-183 844l-358 -883l-338 1604 q-22 114 -65 114q-19 0 -48 -30q-26 -35 -49 -102q-21 -72 -21 -129l13 -105h-91zM1166 1012l174 -844l143 180q98 115 190 265q41 65 74 133q33 65 64 143q51 135 51 264q0 80 -37 170q-18 47 -41 82q-25 35 -61 64q-64 52 -144 52q-65 0 -129 -51q-33 -26 -65 -65 q-33 -41 -62 -96z" />
<glyph unicode="X" horiz-adv-x="1495" d="M16 80q0 55 37 103q37 45 99 45q57 0 96 -33q41 -29 51 -88q0 -21 -8.5 -43.5t-8.5 -24.5t3 -2q10 12 16 21l-37 -2q37 0 74 28q34 29 75 86q39 58 95 152q53 94 120 221l117 225l-321 692q-14 29 -26 54q-15 24 -29 39q-23 24 -53 24q-39 0 -66 -61q-6 -21 -16 -64 q-11 -45 -11 -110h-84l6 84q0 37 9.5 68.5t28.5 70.5q30 61 92 100q51 37 129 37q102 0 172 -131l282 -602l80 158l62 118q28 58 55 99q35 55 62.5 96t64.5 82q72 84 149 135q41 25 86 41q43 16 89 16q61 0 112 -34q53 -41 53 -103q0 -57 -34.5 -96t-83.5 -39 q-113 0 -140 102q-2 23 -6 35l4 13l-22 -5q-76 -26 -164 -147q-88 -123 -162 -260q-14 -29 -69 -146l-82 -172l286 -634q39 -76 74 -119q29 -31 80 -31q108 0 164 131l41 98l65 -22l-33 -100q-24 -91 -114 -166q-90 -79 -217 -79q-35 0 -60 12q-24 12 -61 41q-25 21 -37 40 q-14 18 -31 47l-69 143l-205 447l-88 -164l-96 -180q-64 -123 -123 -201q-56 -80 -133.5 -135.5t-165.5 -55.5l-66 6q-49 12 -78 54q-29 39 -29 86z" />
<glyph unicode="Y" horiz-adv-x="860" d="M-86 1348q0 92 41 176q39 84 115 137q74 53 162 53q92 0 176 -59q84 -55 160 -215q67 -147 114 -350l33 69q57 117 115 211q51 82 121 168q63 78 135 123q69 43 147 58h23q55 0 96 -35q39 -37 39 -97q0 -53 -35 -90q-37 -47 -88 -47q-109 0 -145 133q0 -6 2 -10h16 l-12 -4q-80 -33 -176 -174q-102 -160 -192 -350l-54 -123l-127 -852l76 -10l141 -15l-27 -88q-84 12 -166 18t-133 6q-94 0 -153 -6q-82 -14 -129 -20l-9 84q78 14 107 19q74 12 119 12l131 846q-15 98 -51 231q-25 109 -82 227q-43 95 -111 162q-63 58 -133 58 q-37 0 -68 -35q-39 -35 -67 -96q-17 -41 -21 -68q-6 -29 -6 -55q0 -27 15 -78l38 -86l-78 -31q-29 53 -43 105q-16 51 -16 98z" />
<glyph unicode="Z" horiz-adv-x="1352" d="M17 99q0 133 96 206q94 74 203 74q63 0 137 -14q72 -15 80 -58q-2 -12 -4 -22l8 59l41 -12l239 393h-372v86h426l321 541l-514 176q-74 24 -170 24q-65 0 -127 -22q-61 -22 -98 -63q-19 -23 -31 -45.5t-16 -51.5l-8 -57q0 -61 28 -115q27 -53 72 -92t141 -65l-30 -82 l-97 47q-86 35 -139 121q-27 49 -39 92q-14 41 -14 92q0 47 16 98q14 49 41 99q47 92 137 147t201 55q139 0 342 -69l395 -131l84 143l93 -27l-89 -143h-4l19 -4q63 0 166 75l63 -51q-51 -57 -80 -83q-28 -27 -63 -52q-66 -41 -148 -41l-33 2l-14 2l-305 -520h356v-86h-405 l-256 -422l481 -186q17 -6 29 -8t59 -10q76 6 111 55q20 24 33 57q10 33 10 74v125l86 -14v-123q0 -103 -39 -179q-41 -75 -111 -113q-71 -36 -157 -36q-84 0 -162 31l-438 172l-76 -97q-33 -43 -96 -77q-66 -37 -152 -37q-80 0 -145 38q-66 40 -82 124zM103 119 q0 -39 37 -66q18 -12 38 -19q21 -11 56 -11q147 0 239 139l17 21l-84 28q-33 10 -76 18.5t-70 8.5q-69 0 -114 -33q-43 -27 -43 -86z" />
<glyph unicode="[" horiz-adv-x="625" d="M-46 -512l37 125q16 65 37 204l56 406l57 410l47 315l35 226l27 235l27 277q96 0 297 -4q198 -6 276 -6l-18 -142l-92 2l-72 2q-62 0 -94.5 -22.5t-42.5 -87.5l-240 -1684q0 -51 10 -70q11 -18 34.5 -24.5t84.5 -6.5h129l-12 -145l-223 2l-138 -5z" />
<glyph unicode="\" horiz-adv-x="936" d="M261 1700l87 25l541 -1762l-82 -45z" />
<glyph unicode="]" horiz-adv-x="629" d="M-54 -502l23 138h148q74 0 113 20q32 21 39 88l241 1680q0 53 -11 75q-10 21 -30 23q-41 8 -97 8h-129l23 146q37 0 130 -5q92 -4 108 -4q53 0 125 6q166 15 219 15l-39 -127q-6 -23 -10 -49q-6 -29 -18 -109l-37 -235l-41 -314l-43 -313l-64 -418l-39 -293l-32 -342 q-97 0 -296 6q-201 4 -283 4z" />
<glyph unicode="^" horiz-adv-x="525" d="M134 996l321 245l180 -260l-49 -37l-166 117l-221 -113z" />
<glyph unicode="_" horiz-adv-x="1415" d="M-19 -273h1518v-94h-1518v94z" />
<glyph unicode="`" horiz-adv-x="465" d="M192 1153q11 23 19 35q6 10 8 14q13 25 54 25q51 0 104 -51l193 -187l-31 -65l-250 121q-86 45 -97 108z" />
<glyph unicode="a" d="M57 244q0 51 8 102q6 50 21 107q27 104 82 194q53 91 139 150q86 57 205 57q33 0 51 -2q17 -4 41 -12l43 -25l5 15h139l-37 -203l-25 -145l-30 -216l-13 -135q0 -59 9 -63l6 10q4 4 14 19q2 4 14 22l21 47l26 70l70 -53q-53 -119 -92 -168q-45 -71 -127 -71q-33 0 -57 48 q-27 47 -27 135l4 51l8 88q-14 -24 -28 -51q-17 -26 -37 -55q-37 -53 -66 -84q-28 -33 -67 -66q-76 -66 -152 -66q-72 11 -111 101q-14 37 -25 90q-12 54 -12 109zM239 219q0 -125 46 -159q12 0 31 18q18 16 53 55t67 88q33 48 64 101q59 108 88 213l41 188q-49 45 -104 45 q-97 0 -158.5 -92t-92.5 -221q-16 -70 -24 -121q-11 -53 -11 -115z" />
<glyph unicode="b" horiz-adv-x="695" d="M94 160l3 47l157 1022l12 86l11 82q0 12 4 20q2 0 4 3q-10 0 -27.5 -33t-27.5 -51l-47 -93l-66 41l49 111q27 57 68 100q51 54 96 54q16 0 29 -7h8q29 -12 47 -49q16 -39 16 -100l-8 -117l-72 -471q72 49 166 49q113 0 181 -88q67 -90 67 -203q0 -153 -59.5 -294.5 t-159.5 -231.5q-100 -93 -219 -93q-98 0 -164 60q-68 58 -68 156zM256 127q0 -39 17 -65q16 -21 41 -23q69 0 129 55q61 62 102 150q39 88 47 174v57l2 60q0 192 -94 211h-23q-47 0 -96 -41t-61 -137l-56 -359l-4 -39z" />
<glyph unicode="c" horiz-adv-x="623" d="M104 242q0 65 8 137q9 70 21 141q25 129 103 233.5t221 104.5q74 0 139 -47q64 -49 64 -133q0 -24 -23 -51q-2 -2 -18 -8q-19 -8 -29 -13q-65 0 -106 78q-29 64 -29 88q8 0 16 2l-6 2l-16 2q-31 0 -68 -24.5t-65 -81.5q-29 -59 -41 -164l-11 -117q-12 -73 -12 -125 q0 -149 66 -174q49 -16 82 -18q92 0 133 70l39 67l74 -26q-31 -68 -60 -107t-72 -74q-82 -60 -172 -60q-108 0 -170 58q-63 56 -64 164v35q0 16 -4 41z" />
<glyph unicode="d" d="M43 176l8 88l7 70q22 127 79 242q29 55 66 102q35 47 80 86q90 78 194 78q48 0 68 -2q18 -2 41 -14l31 -19l98 688h150l-125 -886l-27 -213l-22 -170l-12 -127l-4 -31q16 12 22 29l69 116l66 -39l-59 -116q-25 -45 -68 -85q-47 -37 -101 -37q-30 6 -55 56q-24 49 -24 135 l8 96l15 97q-19 -37 -35.5 -68t-46.5 -82q-21 -33 -46 -67q-35 -45 -82 -97q-72 -70 -139 -70q-27 0 -39 6q-51 17 -84 81q-33 61 -33 153zM199 211q0 -129 39 -151q33 6 90 71q68 78 133 201q31 61 56 121q24 57 35 104l47 162q-36 25 -46 29q-28 14 -61 14q-56 0 -109 -43 t-90 -117q-39 -75 -61 -151q-33 -158 -33 -240z" />
<glyph unicode="e" horiz-adv-x="633" d="M100 213l4 70q0 147 27 260q25 113 60 175.5t67 76.5q25 14 47 22q23 6 74 16q49 8 131 8q70 0 162 24l-27 -324q0 -39 -14 -68q-14 -28 -45 -61q-31 -25 -61 -39q-33 -16 -72 -16l-51 4l-131 10l-11 -203q0 -41 17 -63q14 -25 41 -31l53 -6q61 0 98 35q29 26 57.5 67 t47.5 72l80 -39q-74 -135 -154 -197q-82 -62 -178 -62h-29q-27 7 -41 9q-88 24 -121 92q-12 27 -21.5 74t-9.5 94zM275 449l131 -10q59 0 86 61q24 61 24 186v72h-55q-84 0 -121 -37q-20 -24 -37 -86q-8 -29 -14 -63.5t-10 -71.5z" />
<glyph unicode="f" horiz-adv-x="451" d="M70 -531l184 1293h-130v92h144l55 385q13 97 45 170q19 41 39.5 74t51.5 57q59 56 135 56q51 0 92 -54q29 -53 29 -98q0 -55 -57 -90q-47 12 -62 29q-20 16 -28 49l-17 47v39h10q2 -4 4 -6q-6 0 -16 -19q-10 -18 -16 -26q-31 -50 -37 -105l-74 -508h182v-90h-198 l-174 -1260z" />
<glyph unicode="g" horiz-adv-x="750" d="M50 -326l9 49q6 8 19 19q10 10 33 18q82 -14 108 -69q9 -21 18 -56q4 -14 17 -65q-2 0 -2 -2q2 0 12 -2h17q80 0 160 86q79 84 94 233l57 406q-180 -314 -313 -314l-39 6q-84 27 -124 122q-41 92 -41 202l4 68q0 47 13 94q10 45 30.5 93.5t43 86t53.5 72.5q56 64 129 109 q78 41 152 41q135 0 203 -138l59 84l55 -22l-131 -877q-22 -146 -73 -242q-54 -96 -136 -147q-77 -45 -192 -45q-96 0 -156 49t-79 141zM233 279q0 -158 76 -199q29 6 87 72q65 74 133 196q26 54 55 119q29 66 43 107l25 65q-9 33 -21 56q-14 22 -39 49q-39 41 -100 41 q-47 0 -88 -39q-27 -25 -45.5 -49.5t-39.5 -63.5q-22 -41 -35.5 -74.5t-21.5 -70.5q-16 -64 -23 -107q-6 -43 -6 -102z" />
<glyph unicode="h" horiz-adv-x="815" d="M136 103q0 61 11 139l12 106l139 1022l2 23l2 18l-1 13q-2 0 -12 -15q-12 -16 -18 -26q-9 -13 -17 -35l-33 -92l-76 28l51 121q11 23 27 45q17 23 38.5 42.5t50.5 29.5q26 10 47 10q91 0 91 -129q0 -45 -8 -100l-8 -62l-136 -1001l163 401q16 37 41 76q23 37 49 66 q64 71 133 71q51 0 82 -39t31 -88l-8 -71l-64 -504l-4 -41l-2 -29q0 -8 -17 -14q15 0 33 22q27 29 41 66l43 82l80 -19l-65 -116q-27 -62 -68 -97q-47 -45 -102 -45t-76 41t-21 95l4 49l57 458l13 134v8q-22 0 -53 -37q-37 -47 -55 -94l-201 -494q-4 -14 -20.5 -45 t-26.5 -47t-29.5 -35t-36.5 -27q-30 0 -53 31q-30 37 -30 105z" />
<glyph unicode="i" horiz-adv-x="461" d="M106 574l60 157q19 47 57 90q48 46 99 46t80 -48q20 -45 20 -86v-32l-84 -549l-8 -53v-7q0 -4 -2 -6l-6 -6q20 0 37 31l69 125l74 -19l-59 -116q-31 -58 -76 -101t-98 -43q-52 0 -78 41q-17 29 -23 51v48l90 587v27l2 18h8q-14 -8 -18 -14q-7 -8 -15 -27.5t-12 -27.5 l-45 -121zM254 1360q0 19 8 35q6 16 23 37q31 31 74 31q88 0 100 -95q0 -39 -27 -86q-32 -41 -73 -41q-45 0 -74 35q-31 35 -31 84z" />
<glyph unicode="j" horiz-adv-x="416" d="M-109 -359q0 39 17 58q14 16 57 26q4 -8 4 -10h-5q109 -55 130 -158q-12 0 -18 4l14 37l19 84q6 39 10 54q2 14 4 14l150 955v24v29q-4 -2 -11 -6q-6 -6 -12 -14q-8 -9 -20.5 -29.5t-18.5 -32.5l-51 -117l-72 37l66 131q24 51 74 92q57 48 102 48q51 0 76 -43 q25 -35 25 -82l-2 -27l-2 -18l-152 -953q-11 -60 -25 -101q-16 -41 -47 -84q-55 -88 -150 -88q-72 0 -121 50q-41 51 -41 120zM299 1360q13 107 117 107q41 -11 61 -43q23 -25 23 -66q0 -63 -25 -90q-24 -27 -71 -27q-21 0 -39 11q-19 8 -39 26q-27 37 -27 82z" />
<glyph unicode="k" horiz-adv-x="834" d="M96 -31l51 361l156 1026l2 25l2 18q0 6 2 18q-12 -12 -16 -20q-21 -27 -35 -66l-51 -124l-72 38l62 140q20 49 57 88q25 26 45 39q19 10 45 10q52 0 82 -43q24 -35 24 -86q0 -41 -8 -96l-39 -254l-151 -992l47 269q20 106 74 231q53 123 131 203q41 45 86 65q43 21 92 21 q60 0 109 -31q45 -22 82 -76q14 -26 22 -51q6 -26 6 -57q0 -90 -53 -150q-31 -32 -57 -53q-27 -20 -68 -37q-74 -26 -151 -37l8 2l67 -161q27 -66 37 -82q19 -33 41 -35q10 2 27 12q14 8 26 19l41 32l70 -55l-68 -63q-55 -62 -126 -68q-64 0 -115 51q-39 41 -66 103l-32 80 l-93 239l145 4q47 0 101 31q51 31 82 74q29 43 29 90q0 37 -25 78q-22 30 -57 30q-55 0 -111 -59q-63 -70 -102 -162q-23 -45 -35 -82q-12 -39 -23 -90l-67 -367h-230z" />
<glyph unicode="l" horiz-adv-x="469" d="M143 68q11 31 40 31q8 0 16 -2l14 -7l-62 4l193 1276l-4 56l6 -6q-12 -9 -18 -17t-14.5 -20.5t-16.5 -34.5l-43 -115l-84 17l74 155q22 49 61 90q50 45 95 45q57 0 82 -53q18 -43 18 -100v-27l-184 -1214l-9 -82h-16q14 0 33 22q26 31 47 68l43 82l70 -27l-57 -110 q-17 -31 -31 -54q-17 -22 -39 -43q-48 -45 -101 -45q-49 0 -76 33q-27 27 -37 78z" />
<glyph unicode="m" horiz-adv-x="1188" d="M77 551l39 144q17 61 64 108q48 55 105 55t82 -47q22 -49 22 -100v-27l-60 -375l93 218q14 41 57 119.5t101 148.5q57 67 115 67q28 0 45 -12q48 -31 48 -121l-8 -77l-53 -332l102 235q48 111 119 207q72 96 144 96q92 0 92 -120l-2 -50l-2 -39l-62 -491l-12 -74l-6 -8 q21 6 41 47l74 127l69 -29l-57 -112q-29 -62 -76 -103q-53 -49 -108 -49q-60 0 -78 47q-6 13 -11 41q-6 29 -6 52l2 55l70 463q8 43 8 88q0 6 2 10q0 4 2 6q-12 0 -26 -18q-15 -21 -21 -31q-16 -25 -34 -61q-19 -39 -33 -72l-185 -420q-18 -41 -30.5 -64.5t-22.5 -39.5 q-31 -44 -74 -54q-28 0 -51 25.5t-23 75.5l6 71l9 66l69 422q8 39 8 76l-1 26q-14 -6 -53 -74q-23 -41 -43 -86q-23 -47 -43 -98l-142 -344q-22 -72 -43 -109q-20 -37 -69 -51q-33 0 -56 35q-25 33 -31 100l6 48l6 59l65 418l2 37l3 39q0 10 2 18q2 6 2 10q-13 -12 -17 -16 q-10 -12 -16 -25.5t-8 -21.5l-40 -129z" />
<glyph unicode="n" horiz-adv-x="819" d="M61 561l33 129q17 60 62 107q55 57 102 57q102 0 102 -137v-37l-45 -360l84 198q40 101 128 222q88 118 165 118q25 0 48 -12q18 -14 31.5 -49t13.5 -84v-45l-23 -180l-22 -189l-29 -217l-2 -6q8 2 18 16q11 15 19 27l69 127l80 -18l-65 -119q-70 -140 -170 -140 q-56 0 -76 41q-6 15 -12 39q-7 25 -7 52l3 47l57 458l2 41l2 39l-2 31q-14 -2 -29 -18q-14 -19 -39 -58q-59 -86 -94 -178l-145 -342q-21 -51 -45 -94q-35 -62 -56 -68q-30 0 -53 33q-29 41 -29 111l2 51l4 49l55 416l2 39l3 45q0 8 2 12q0 4 2 8q-7 0 -21 -18 q-16 -19 -20 -49l-29 -119z" />
<glyph unicode="o" horiz-adv-x="742" d="M82 361l15 123q20 98 75 186q49 80 137 139q46 27 93 41q47 12 98 12q61 -10 113 -32q49 -23 86 -62q82 -82 82 -280l-4 -95q-8 -106 -62 -210q-53 -105 -129 -158q-88 -64 -188 -64l-56 4q-129 29 -192 144q-31 53 -49 119q-19 63 -19 133zM244 246q0 -203 129 -203 q180 0 234 353l4 63l4 53l2 49q0 101 -25 156q-27 55 -82 64l-39 4q-80 0 -129 -88q-26 -56 -45 -111q-18 -57 -33 -145q-6 -41 -12 -95q-8 -55 -8 -100z" />
<glyph unicode="p" horiz-adv-x="776" d="M17 -557l166 1104l6 51l4 41l2 37q0 43 4 43q-8 0 -14 -12q-9 -15 -25 -55l-39 -119l-72 37l48 139q6 26 24 53q12 19 39 47q51 45 117 45q26 -4 47 -41q20 -39 20 -106v-47q140 198 279 198q104 0 149 -94q21 -47 33 -92q10 -47 10 -100l-2 -41l-2 -45 q-16 -125 -84 -248q-67 -123 -170 -205q-104 -84 -202 -84q-39 0 -66 14l-35 18l-74 -497zM266 76q37 -31 68 -37l29 -4q51 0 109.5 47t99.5 119q43 82 61 158q10 39 18 84q6 43 6 114q0 172 -53 201l-12 2q-41 0 -102 -57q-31 -29 -58 -66q-28 -39 -57 -88 q-49 -90 -63 -176z" />
<glyph unicode="q" horiz-adv-x="762" d="M75 228l4 59l2 57q13 95 54 191q41 94 96 157q64 76 134 115q76 47 153 47q76 0 140 -53l10 29h135l-43 -277l-136 -1049l-170 -35l107 793l-62 -102q-58 -92 -122 -152q-72 -68 -133 -68l-37 7q-59 20 -95.5 90t-36.5 191zM243 238q0 -154 50 -182q14 2 57 43t93 118 q20 31 48.5 82t45.5 90q22 45 37 84q12 37 20 82l29 152q-17 33 -33 45t-57 12q-86 0 -156 -90q-70 -92 -105 -215q-14 -59 -21 -113q-8 -53 -8 -108z" />
<glyph unicode="r" horiz-adv-x="633" d="M102 574l52 141q10 23 24 45q15 23 35 45q41 49 94 49q54 0 78 -43q25 -45 25 -86l-2 -47l-4 -45l-39 -309l51 276q14 56 29 92q12 37 37 76q47 86 135 86q35 0 86 -39q18 -20 32.5 -47.5t14.5 -52.5q0 -37 -27 -66q-28 -24 -57 -30q-25 0 -47 12q-25 12 -47 39l-31 41 q-19 -35 -39 -121t-47 -244l-57 -373h-247l99 691l2 22l2 17l-4 16l-6 -8q-6 -8 -12 -23q-6 -14 -13 -28l-47 -121z" />
<glyph unicode="s" horiz-adv-x="623" d="M80 203q0 51 19 82q16 29 28 29q47 0 84 -35q27 -31 45 -74q18 -45 18 -86l-6 -57q27 -17 78 -23q152 23 152 133q0 68 -66 113l-174 135q-107 68 -107 201q0 67 37 125q38 57 101 92q35 16 64 24q28 9 67 9q100 0 170 -58.5t70 -160.5q0 -37 -13 -56q-14 -18 -28 -18 q-78 0 -119 71q-33 60 -39 132l-51 8q-101 0 -131 -103q6 -32 20 -55q13 -25 45 -49l195 -150q90 -71 90 -204q0 -70 -32 -131q-36 -64 -97 -105q-35 -21 -66 -31q-32 -12 -67 -12q-92 0 -172 53q-80 51 -109 135l-4 35z" />
<glyph unicode="t" horiz-adv-x="529" d="M96 762v92h154l57 357h160l-51 -357h184v-92h-198l-83 -518l-8 -51l-4 -33q0 -35 19 -51q12 -15 47 -19q63 0 102 52l43 65l74 -39l-41 -80q-35 -59 -94 -92q-61 -35 -127 -35q-174 0 -191 174l4 39l96 588h-143z" />
<glyph unicode="u" horiz-adv-x="824" d="M69 553l50 121q27 72 74 123q24 27 53 41q27 12 55 12q54 0 74 -31q18 -32 18 -81l-2 -37l-2 -37l-73 -451l-9 -78l5 -30q22 0 67 57q60 78 131 188l127 209l55 287h155l-78 -592l-10 -76l-9 -71q0 -13 -2 -27q13 6 25 25q10 18 30 57l51 72l64 -37l-43 -86 q-84 -162 -176 -162q-21 0 -54 16l-16 20q-10 11 -12 25q-4 9 -6 21q-5 12 -7 20l-6 46l2 18l2 18l23 242l-51 -82q-105 -164 -189 -246q-86 -82 -143 -82l-35 6q-43 16 -56 111l8 90l70 473v41q0 17 4 23q4 4 8 6q-18 0 -34 -39l-51 -139z" />
<glyph unicode="v" horiz-adv-x="676" d="M43 643l56 121q22 45 67 78t86 33q49 0 80 -39q29 -41 29 -82l-2 -23q0 -18 -4 -26l-68 -522q0 -31 -4 -48q0 -67 29 -75q32 4 98 53q45 33 74 59q28 27 57 64t56 78q24 41 39 71q30 72 30 156v22l-67 56q-25 24 -45 69q-15 41 -21 115q0 39 14 62q12 20 25 22 q22 0 43 -8q20 -10 43 -35q39 -35 67 -109q29 -75 29 -172v-55q-16 -149 -104 -270q-89 -123 -197 -197q-111 -76 -184 -76q-27 0 -39 6q-50 19 -78 66q-31 47 -31 119l4 37l74 514q0 18 4 28l4 31l8 -4l-6 2q-14 -6 -18 -10q-17 -16 -23 -33l-53 -115z" />
<glyph unicode="w" horiz-adv-x="1092" d="M26 619l47 110q19 47 69 95q55 43 100 43t74 -43q12 -23 18 -41q4 -19 4 -39v-35l-74 -514l-2 -25l-6 -24l-4 -29q4 -33 19 -37q18 12 33.5 22.5t31.5 26.5q17 15 33 35q14 19 28.5 35t26.5 41l144 237l49 342l159 48l-98 -680l-6 -58q0 -59 31 -65q16 2 37 14 q18 10 55 37q78 55 129 123q66 84 97 164q16 47 24 86q8 37 8 77l-34 25l-47 39q-19 20 -33 53q-27 72 -37 139q8 27 20 40.5t22 13.5q31 0 80 -37q41 -29 78 -103q37 -73 37 -172v-47q-12 -106 -65 -213q-35 -59 -58 -92q-29 -41 -70 -82q-69 -73 -149 -121 q-82 -47 -137 -47q-29 0 -41 8q-90 39 -90 164l4 52l8 69l-14 -22l-93 -129q-47 -56 -108 -95q-62 -43 -129 -43q-45 6 -74 54q-29 45 -29 123l4 30l2 23l72 497l4 29l2 25l6 4l-6 2q-4 -2 -12 -19.5t-12 -27.5l-49 -107z" />
<glyph unicode="x" horiz-adv-x="848" d="M50 183q14 63 71 63q59 0 115 -68q35 -38 49 -73q14 16 26.5 36.5t26.5 51.5l82 207l-127 278q-14 29 -31 45q-4 6 -18 6q-10 0 -21 -12q-10 -14 -16 -22l-47 -84l-58 51l39 78q66 127 162 127q21 0 37 -7q17 -8 37 -26q33 -27 51 -68l90 -194l54 98q47 86 86 133 q53 64 118 64q76 0 123 -74q39 -66 39 -137q0 -27 -8 -41q-8 -17 -18 -23l-37 -14q-58 0 -109 67q-35 47 -43 101q-14 -8 -35 -33q-12 -16 -41 -72q-31 -55 -43 -82l-37 -90l154 -342q17 -39 39 -41q10 13 10 17l62 137l82 -29l-66 -139q-18 -51 -57 -85t-88 -34 q-60 0 -94 47q-23 31 -60 111l-82 180l-74 -176q-77 -158 -151 -158q-80 0 -134 80q-26 39 -41 76q-17 35 -17 70z" />
<glyph unicode="y" horiz-adv-x="754" d="M22 -363l15 37q2 2 2 4q10 15 37 27q76 -12 133 -72q43 -53 55 -102q56 6 105 51q63 57 92 141t29 174l57 339l-47 -80q-41 -74 -104.5 -139.5t-126.5 -65.5q-25 0 -43 8q-41 12 -64 56q-25 41 -25 110l6 58l68 458l2 23v22q0 13 6 21q4 8 6 8q-10 -10 -12 -14 q-13 -23 -19 -58l-14 -82l-80 33l16 82q21 82 67 133q43 49 94 49q55 0 80 -57q8 -18 12 -43q4 -27 4 -51l-2 -35l-2 -31l-66 -411l-8 -84q2 -21 2 -37v-15q-1 -3 -1 -5q0 -3 1 -5l8 -6q13 0 38.5 24.5t60.5 67.5q43 53 80 123q34 70 73 180l40 111q10 33 18 55q8 23 25 56 q14 30 24 49q11 18 31 43q18 24 45 45q35 28 100 69l-195 -1045q-14 -61 -28 -106q-17 -45 -45 -94q-54 -97 -136 -158q-45 -31 -92 -47q-49 -16 -106 -16q-86 0 -146 57q-26 24 -45 63t-25 82z" />
<glyph unicode="z" horiz-adv-x="867" d="M2 80q0 70 45 131q21 27 33 37q31 31 74 49q59 31 131 31q76 0 117 -25l32 -16l58 98h-205v90h260l111 168q-69 0 -129 21q-45 12 -166 61q-56 25 -99 25q-28 0 -47.5 -21.5t-25.5 -60.5q4 -21 10 -35q4 -14 20 -39l-67 -41q-25 64 -33 89.5t-12 47.5q16 91 74 142 q59 47 151 47q39 0 57 -2q17 -4 50 -15q30 -12 54.5 -22t57.5 -27l99 -43q26 -14 71 -14l53 12l101 51l84 -32l-116 -90q-58 -45 -103 -97q-47 -53 -92 -125h201v-90h-254l-86 -141l122 -92q62 -51 113 -62q26 11 39 19q10 6 28 24q19 17 19 95h72q0 -136 -62 -203 q-61 -68 -147 -68q-37 0 -74 16q-39 14 -76 46l-127 94q-41 -43 -63 -62q-25 -20 -62 -49q-63 -45 -158 -45q-116 0 -133 123zM88 94l4 -26q5 -23 50 -29q106 12 204 123l-8 4q-59 39 -110 39q-23 0 -48 -10q-24 -10 -47 -27q-39 -31 -45 -74z" />
<glyph unicode="{" horiz-adv-x="578" d="M14 580l86 47q72 27 105 61q16 15 29.5 42.5t19.5 54.5l6 24l95 547q53 287 340 287h92l12 -60l-51 -20q-119 -43 -147 -205l-85 -500q-28 -143 -73 -200q-43 -49 -127 -88l16 6l-41 14q55 -22 94 -59q37 -41 37 -115v-35l-86 -596l-2 -31l-4 -29q0 -67 33 -98 q26 -35 104 -61l-10 -60q-156 0 -240 33q-98 33 -117 158l-4 45l14 133l15 108l59 431v12q0 41 -22 68q-23 24 -31 31q-10 6 -33 12z" />
<glyph unicode="|" horiz-adv-x="396" d="M230 -533v2206h86v-2206h-86z" />
<glyph unicode="}" horiz-adv-x="555" d="M-99 -436l47 16q125 45 148 211l87 502q28 139 73 197q49 55 146 92l-21 -6l23 -15q-66 33 -92 60q-40 43 -40 112l4 37l85 588l4 66q0 69 -29 100q-13 16 -39 33q-27 14 -66 26l11 60q151 0 243.5 -35t108.5 -156v-59l-4 -76l-8 -86l-8 -72l-62 -428l-4 -18 q6 -37 20.5 -53.5t30.5 -24.5q15 -10 47 -29l86 -49l-96 -32q-63 -27 -96 -60q-35 -33 -55 -100l-9 -29l-96 -545q-39 -287 -336 -287h-92z" />
<glyph unicode="~" horiz-adv-x="498" d="M136 1022l64 88q19 23 27 35q9 12 39 29q29 14 58 16q43 0 57 -6l58 -25l38 -14l25 8l39 17q22 16 45 43l63 -43q-24 -54 -38 -80q-17 -27 -31 -43q-27 -37 -96 -45q-41 0 -95 20q-53 21 -82 21q-22 0 -38 -6q-19 -9 -41 -23z" />
<glyph unicode="&#xa1;" horiz-adv-x="461" d="M82 -533l248 1168h68l-99 -1006q0 -39 -8 -63q-10 -27 -29 -54q-36 -45 -110 -45h-70zM287 922q0 55 31 100q28 45 86 45q55 0 88 -45t33 -100q0 -60 -33 -96q-21 -19 -41 -29q-21 -12 -43 -12q-47 0 -84 43q-37 41 -37 94z" />
<glyph unicode="&#xa2;" horiz-adv-x="606" d="M112 662q0 129 33 246q31 116 107 202q35 39 82 70q47 29 100 41l50 311h86l-50 -309q60 -12 107 -51q68 -54 68 -135q0 -41 -23 -54l-41 -22q-131 14 -149 172q0 6 2 12q0 -4 2 -8h-4q2 -2 24 -16l-113 -674l39 -8q84 10 142 81l45 64l72 -31l-47 -71q-17 -25 -38 -52 q-22 -26 -36 -43q-29 -34 -93 -55q-24 -12 -53 -16q-31 -7 -71 -7q0 9 8 9q8 -2 20 -2l-26 -158l-39 -234l-91 25l64 377q-177 55 -177 336zM275 586q0 -25 6 -45.5t16 -42.5l21 -25l102 664h35q-57 0 -90 -47q-33 -49 -45 -121q-11 -43 -15 -78q-6 -35 -6 -74l-16 -145z " />
<glyph unicode="&#xa3;" horiz-adv-x="953" d="M-10 2q113 115 179.5 267t90.5 344h-170v84h183l39 219l20 123q14 107 37 170q12 41 23.5 67.5t35.5 65.5q11 19 31 44.5t51 58.5q33 30 64 52q39 29 86 52q47 20 94 32q45 11 100 11q39 0 74 -9q33 -8 68 -22q78 -37 78 -125q0 -25 -6 -43q-8 -21 -27 -45 q-33 -41 -84 -41q-47 0 -90 37t-43 92q0 18 4 31q2 12 17 30l12 23q-12 -8 -17 -8q-71 0 -118 -31q-74 -51 -121 -137q-25 -47 -41 -92q-17 -47 -27 -100q-12 -43 -31 -154q-10 -59 -20 -117l-27 -184h310v-80h-318q-31 -246 -193 -463l-22 -29h28q84 0 265 -6 q180 -6 276 -6l51 12q15 6 29 25l143 129l56 -53l-291 -288l-293 15h-356l-134 -23z" />
<glyph unicode="&#xa4;" horiz-adv-x="1139" d="M31 357l143 137q-64 110 -64 231q0 119 64 230l-143 143l160 164l143 -145q105 63 231 63q62 0 121 -16q60 -16 111 -45l143 145l162 -166l-143 -143q28 -53 45 -111q16 -57 16 -119q0 -123 -63 -229l145 -141l-160 -164l-145 144q-113 -64 -232 -64q-124 0 -231 66 l-143 -144zM336 725q0 -92 68 -160q65 -67 159 -67q95 0 162 66.5t67 160.5t-69 162t-160 68q-94 0 -159 -66q-33 -35 -49 -76q-19 -41 -19 -88z" />
<glyph unicode="&#xa5;" horiz-adv-x="844" d="M128 193l11 41q1 18 39 28q58 0 105 -34.5t78 -83.5l28 -70q86 0 150 76q67 73 96 246h-304l1 88h313l101 602l59 -17l-51 -114q-78 -174 -170 -295q-98 -129 -193 -129q-61 16 -96 63q-38 47 -38 127l4 39l2 27l72 501l2 25l2 29q0 8 6 22q1 4 1 8l-14 -14 q-14 -27 -20 -65l-13 -84l-89 22l23 94q23 82 68 142q45 57 103 57q57 0 84 -57q16 -45 16 -97l-5 -84l-69 -452l-4 -51l-4 -56q6 -65 10 -67q41 0 99 80q41 63 61 98q33 55 60 115q55 118 81 198q43 137 88 223q25 48 68 88.5t131 96.5l-203 -1080h170v-86h-184 q-18 -100 -63 -182q-25 -43 -50 -74q-26 -30 -63 -63q-59 -47 -119 -76q-59 -25 -104 -25q-103 0 -181 58q-78 55 -95 162z" />
<glyph unicode="&#xa6;" horiz-adv-x="25" d="M234 -525v2035v172h86v-2037v-170h-86z" />
<glyph unicode="&#xa7;" horiz-adv-x="971" d="M30 -154l81 357h120l-22 -143q0 -43 31 -77q29 -34 84 -53q55 -18 104 -18q88 0 156 26q63 21 111 79q47 55 55 137q0 37 -29 69q-14 17 -39.5 34.5t-68.5 37.5q-45 21 -82 35q-62 25 -121 45q-162 53 -230 115q-76 69 -76 155l4 43q11 76 43 133q33 52 70 87l72 59 q-76 72 -76 154q16 67 31 110q14 41 34 84q21 41 46 80q25 37 61 74q68 73 154 116q47 21 94 33t101 12q94 0 153 -12q60 -12 182 -61q-24 -92 -39 -152q-20 -88 -40 -196h-119l10 192q-18 27 -72 47q-67 18 -129 18q-92 0 -166 -46q-36 -25 -59 -54q-25 -30 -41 -76l-7 -43 q0 -94 238 -178l106 -37q95 -28 154.5 -61t96.5 -86q43 -55 43 -139q0 -101 -55 -178q-37 -60 -115 -127q76 -60 76 -166q0 -152 -97 -273q-96 -123 -235 -187q-141 -65 -289 -65q-86 0 -147 20q-39 13 -71 29q-30 14 -86 47zM311 754q6 -45 43 -80q12 -12 39 -29 q27 -16 52 -26q22 -13 59 -29t68 -29l135 -47l67 -18l37 45q8 12 15 33q6 18 12 35l4 47q0 102 -115 139l-325 108q-83 -88 -91 -149z" />
<glyph unicode="&#xa8;" horiz-adv-x="510" d="M194 1094q0 45 32 78q34 30 79 30q48 -8 70 -38q23 -33 23 -74t-29 -74q-29 -35 -80 -35q-45 8 -70 41t-25 72zM416 1094q0 43 30.5 75.5t73.5 32.5q50 -6 71.5 -36.5t21.5 -75.5q0 -37 -29 -76q-33 -33 -76 -33q-49 6 -67 39q-25 31 -25 74z" />
<glyph unicode="&#xa9;" horiz-adv-x="1565" d="M116 609q0 210 107 415t306 334q196 127 456 127q90 0 156 -10q63 -10 131 -39q127 -53 205 -139q39 -43 69 -95q30 -51 52 -112q41 -115 41 -246q0 -162 -59 -315q-60 -156 -171.5 -281t-273.5 -200q-164 -78 -363 -78q-159 0 -280 51q-121 49 -209 139q-45 51 -74 98 q-31 47 -50 107q-43 117 -43 244zM260 625q0 -139 60 -258q30 -60 73 -105q41 -47 101 -79q119 -70 291 -70q213 0 376 104q162 105 250 275t88 344q0 106 -30 198q-33 91 -99 160q-65 70 -163 110q-101 41 -232 41q-164 0 -299 -61q-65 -30 -119 -69q-55 -41 -106 -97 q-92 -104 -142 -233q-24 -72 -36 -131q-13 -62 -13 -129zM424 670q0 111 47 201q41 92 113 157q72 66 170 103q90 37 194 37q70 0 125 -13l197 -45l-68 -223h-88l15 115q-2 6 -23 20q-22 12 -39.5 18.5t-38.5 10.5l6 61v-28q-6 -29 -30 -29h-4q-15 4 -33 4h-27 q-100 0 -172 -49q-73 -51 -116 -139q-43 -90 -43 -189q0 -119 73 -200q74 -82 178 -82q33 0 64 4q29 4 51 10q23 5 49 14q53 21 70 27l49 29l33 -56l-39 -75l-41 -17q-19 -10 -43 -18q-27 -11 -70 -22q-67 -21 -141 -21q-94 0 -170 29q-76 26 -133 79q-115 105 -115 287z " />
<glyph unicode="&#xaa;" horiz-adv-x="629" d="M257 1106l4 55l2 50q5 43 19 84q15 41 37 86q42 82 107 139q66 55 144 55q43 0 86 -22l2 12h120l-28 -160q-47 -246 -47 -338q2 -8 2 -14l-4 -16l22 40q10 25 17 35q4 9 26 31l47 -39l-32 -82q-19 -41 -50 -67q-32 -29 -82 -29q-22 6 -43 41t-27 96l4 33l19 176l59 -16 l-18 -45q-27 -56 -55 -101q-31 -47 -68 -94q-79 -96 -147 -96q-23 2 -31 6q-37 10 -60 55q-25 45 -25 125zM294 703l22 131h452l-22 -131h-452zM388 1137q0 -76 26 -105q6 2 20 17q25 22 29 26q51 56 94 132q43 81 55 143l33 127q-36 31 -71 31q-49 0 -92 -62 q-44 -61 -75 -156q-6 -28 -12.5 -65t-6.5 -88z" />
<glyph unicode="&#xab;" horiz-adv-x="633" d="M170 619l355 352l23 -66q-35 -65 -78 -131q-46 -67 -113 -161q61 -162 82 -269l-56 -55q-59 127 -102 195q-45 67 -111 135zM406 609l125 120l104 103l103 106l55 -41q-65 -102 -112 -174q-56 -84 -90 -127l53 -137q14 -43 26 -131l-45 -55l-117 198q-33 54 -102 138z " />
<glyph unicode="&#xac;" horiz-adv-x="1641" d="M177 479l20 173h1503l-94 -683h-182l71 510h-1318z" />
<glyph unicode="&#xad;" horiz-adv-x="815" d="M139 553l27 166h680l-22 -166h-685z" />
<glyph unicode="&#xae;" horiz-adv-x="1544" d="M116 609q0 210 107 415t306 334q196 127 456 127q90 0 156 -10q63 -10 131 -39q127 -53 205 -139q39 -43 69 -95q30 -51 52 -112q41 -115 41 -246q0 -162 -59 -315q-60 -156 -171.5 -281t-273.5 -200q-164 -78 -363 -78q-159 0 -280 51q-121 49 -209 139q-45 51 -74 98 q-31 47 -50 107q-43 117 -43 244zM260 625q0 -139 60 -258q30 -60 73 -105q41 -47 101 -79q119 -70 291 -70q213 0 376 104q162 105 250 275t88 344q0 106 -30 198q-33 91 -99 160q-65 70 -163 110q-101 41 -232 41q-164 0 -299 -61q-65 -30 -119 -69q-55 -41 -106 -97 q-92 -104 -142 -233q-24 -72 -36 -131q-13 -62 -13 -129zM455 303l12 97l45 -2q39 4 49 10q11 6 11 28l86 596q0 15 -6 21q-15 6 -23 6l-72 4l13 101l188 -7l88 4l115 7q96 0 184 -43q86 -45 86 -148q0 -104 -90 -180q-66 -53 -150 -84l183 -303q6 -8 20 -12q15 -5 51 -5 l-10 -98l-102 12l-35 -4l-61 -4l-287 465l96 21q78 14 152 57q30 20 44.5 43t14.5 51q0 60 -31.5 89.5t-97.5 29.5q-18 0 -39.5 -2t-50.5 -10l-88 -613v-22q12 -6 28 -8q17 -2 74 -2l-14 -95h-43q-21 0 -37 2q-16 0 -29 2l-73 5l-37 -3l-49 -4l-15 -2h8h-108z" />
<glyph unicode="&#xaf;" horiz-adv-x="1131" d="M-62 1536v191h1254v-191h-1254z" />
<glyph unicode="&#xb0;" horiz-adv-x="819" d="M98 1215q0 129 89 219q88 88 219 88q129 0 219 -88q88 -90 88 -219q0 -127 -90 -217q-90 -93 -217 -93q-129 0 -217 93q-91 90 -91 217zM269 1215q0 -56 38 -99q46 -41 101 -41q53 0 94 41q41 39 41 99q0 53 -39 96q-41 41 -98 41q-56 0 -97 -41q-40 -41 -40 -96z" />
<glyph unicode="&#xb1;" horiz-adv-x="975" d="M67 -35l19 140h867l-23 -140h-863zM168 567l20 162h350l54 355h152l-45 -355h352l-27 -162h-354l-47 -354h-154l47 354h-348z" />
<glyph unicode="&#xb2;" horiz-adv-x="682" d="M-11 703q10 101 57 164q72 92 216 196q143 105 166 131q14 17 20 31q6 12 8 33q0 32 -22 55q-24 23 -86 23q-51 0 -79 -19q-17 -10 -29 -43q-14 -35 -23 -55l-210 22q23 88 52 138q27 47 68 77q82 60 226 60q153 0 239 -66q82 -71 82 -170q0 -94 -63 -176 q-26 -27 -79 -72.5t-133 -105.5l-55 -41h334v-182h-689z" />
<glyph unicode="&#xb3;" horiz-adv-x="682" d="M-7 959l206 20q29 -78 49 -90q37 -27 86 -27q55 0 92 31q33 33 33 72q0 35 -25 57q-14 12 -36 19q-25 4 -66 4l-31 -2h-62l33 170q94 0 123 22q29 23 29 51q0 15 -18 37q-21 19 -70 19q-47 0 -72 -17q-24 -16 -51 -88l-208 35q38 86 66 129q27 41 64 66q68 49 201 49 q156 0 227 -62q78 -59 78 -157q0 -58 -43 -117q-18 -25 -43 -39q47 -20 74 -55q47 -60 47 -140q0 -108 -88 -184q-88 -78 -246 -78q-151 0 -231 62q-46 32 -72 82q-27 47 -46 131z" />
<glyph unicode="&#xb4;" horiz-adv-x="404" d="M159 959l191 182q66 57 105 57q27 0 48.5 -20.5t21.5 -50.5q0 -29 -20 -56q-23 -28 -70 -51l-236 -121z" />
<glyph unicode="&#xb5;" horiz-adv-x="1137" d="M-15 -344q6 51 31 118l49 117q25 60 35 111l158 1088h231l-104 -762l-4 -41q6 -66 41 -109q33 -45 88 -45q41 0 105 29q63 35 108 82q43 45 49 90l109 756h240l-130 -856q0 -27 -4 -39q4 -49 23 -74q18 -27 53 -27q53 7 82 72l31 76h104l-41 -107q-22 -59 -71 -106 q-52 -48 -117 -74q-33 -15 -62.5 -21t-60.5 -6q-76 16 -127 80q-33 41 -45 101l-12 -12q-72 -66 -160 -114q-88 -47 -152 -47q-63 0 -133 39q-35 17 -69 48v-33q-7 -21 -9 -29q0 -37 18 -105q17 -77 17 -129q0 -71 -35 -147q-41 -76 -122 -76q-56 0 -84 41q-13 16 -25 31 q-5 0 -5 -19v99z" />
<glyph unicode="&#xb6;" horiz-adv-x="1125" d="M147 1143q0 47 8 82q9 33 29 82q54 113 175 166q120 51 270 51l188 -8l197 -6l117 -7l102 7l152 12l-16 -127l-141 -14q-25 -2 -54 -25q-10 -8 -14 -25q-6 -16 -10 -41l-199 -1362q0 -49 23 -63q18 -7 57 -11q37 -4 98 -4l-19 -116l-225 4l-201 4l-207 -4l-244 -7l17 117 l102 8q43 4 53 11q19 6 35 24q10 19 14 27q2 6 5 22l117 804q-99 12 -189 49q-106 47 -168 133q-72 92 -72 217zM426 1102q0 -74 51 -133q50 -61 132 -76l-11 4l66 494q-33 -2 -82 -23q-25 -10 -41 -24q-19 -17 -49 -49q-44 -52 -58 -134zM664 -127h67l215 1506l-65 2z" />
<glyph unicode="&#xb8;" horiz-adv-x="682" d="M73 -436l19 174l123 -4q78 0 111 20q16 12 16 25l-6 14l-25 12q-18 4 -51 8q-33 2 -84 2l70 238h197l-35 -113q69 -14 110 -53q27 -27 42 -55q12 -31 12 -62q0 -92 -84 -157q-39 -31 -101 -48q-61 -18 -135 -18q-82 0 -179 17z" />
<glyph unicode="&#xb9;" horiz-adv-x="682" d="M76 1135v182q45 16 61 25q48 20 91 53q67 47 127 121h151v-813h-206v524q-50 -31 -100 -51q-50 -23 -124 -41z" />
<glyph unicode="&#xba;" horiz-adv-x="623" d="M243 733l21 132h445l-23 -132h-443zM258 1211q10 84 41 166q29 79 101 137q67 59 176 59q110 -18 162 -102q47 -84 47 -185v-49q-18 -127 -90 -219t-195 -92l-53 4q-92 18 -140.5 96t-48.5 185zM393 1147q0 -65 18.5 -102t53.5 -43l29 -4q63 0 90 63q25 64 41 182 q8 60 8 111q0 139 -68 149q-67 0 -102 -59q-43 -72 -59 -170l-6 -70z" />
<glyph unicode="&#xbb;" horiz-adv-x="619" d="M112 338q97 160 199 297q-12 27 -27.5 70t-21.5 65q-8 21 -16 62q-11 39 -15 78l56 45q49 -99 51 -101q29 -53 58 -100q22 -43 104 -125l-156 -152q-63 -61 -116 -116q-43 -43 -68 -72zM397 318q70 133 187 293q-31 81 -49 147q-21 66 -31 121l53 53l72 -137l55 -92 q13 -17 43 -51q21 -23 41 -46q-20 -26 -78 -84q-45 -47 -71 -73q-80 -78 -99 -96q-49 -50 -94 -101z" />
<glyph unicode="&#xbc;" horiz-adv-x="1708" d="M76 1135v182q45 16 61 25q48 20 91 53q67 47 127 121h151v-813h-206v524q-50 -31 -100 -51q-50 -23 -124 -41zM193 -88l1145 1610h232l-1144 -1610h-233zM1016 92v164l422 496h168v-490h102v-170h-102v-154h-206l-1 154h-383zM1268 262h131v150z" />
<glyph unicode="&#xbd;" horiz-adv-x="1708" d="M76 1135v182q45 16 61 25q48 20 91 53q67 47 127 121h151v-813h-206v524q-50 -31 -100 -51q-50 -23 -124 -41zM168 -88l1145 1610h233l-1144 -1610h-234zM1014 -62q10 95 59 162q66 90 209 195q144 103 170 135q27 31 29 64q0 33 -25 53q-12 10 -34 16q-23 7 -50 7 q-55 0 -75 -15q-23 -16 -56 -100l-209 22q23 84 52 134q26 49 69 81q78 60 224 60q153 0 239 -66q82 -71 82 -170q0 -94 -63 -176q-25 -26 -78 -71q-54 -48 -133 -107l-56 -41h334v-183h-688z" />
<glyph unicode="&#xbe;" horiz-adv-x="1708" d="M-6 959l205 20q29 -78 49 -90q37 -27 86 -27q55 0 92 31q33 33 33 72q0 35 -25 57q-14 12 -36 19q-25 4 -62 4l-98 -4l35 172q94 0 123 22q28 23 28 51q0 15 -18 37q-21 19 -70 19q-47 0 -72 -16q-24 -17 -51 -88l-207 34q37 86 66 129q27 41 63 66q68 49 201 49 q156 0 227 -62q78 -59 78 -157q0 -58 -43 -117q-18 -25 -43 -39q47 -20 74 -55q47 -60 47 -140q0 -108 -88 -184q-88 -78 -246 -78q-151 0 -231 62q-45 32 -72 82q-26 47 -45 131zM193 -88l1145 1610h232l-1144 -1610h-233zM1016 92v164l420 496h170v-490h102v-170h-102 v-154h-206l-1 154h-383zM1268 262h131v150z" />
<glyph unicode="&#xbf;" horiz-adv-x="776" d="M34 -221q0 127 55 213q23 39 60 84q28 35 72 76l256 237q57 52 57 113q0 25 -10 49q-10 25 -41 62l58 65q37 -49 49 -67q12 -21 21 -41q8 -23 14 -41q4 -19 4 -56q0 -139 -115 -247l-203 -209q-41 -38 -84 -116q-35 -57 -41 -124q17 -99 70 -154q51 -57 133 -57 q47 0 80 8q31 6 66 24q63 33 108 93q25 36 35 67q10 29 21 88l77 -20q-12 -92 -43 -154q-30 -61 -92 -111q-112 -90 -276 -90q-139 18 -222 97q-43 36 -70 89.5t-39 121.5zM471 910q0 51 33 98q31 47 88 47q47 0 88 -47q35 -47 35 -96q-16 -131 -145 -131q-19 4 -39 18 q-21 12 -33 31q-27 35 -27 80z" />
<glyph unicode="&#xc0;" horiz-adv-x="1639" d="M5 166l85 47q9 -86 33 -123q23 -39 68 -47q157 0 198 223l65 371h-209v90h223l93 500q12 57 31 102q16 43 49 88q27 43 62 80t80 72q84 66 184 98q47 19 96 27t101 8q86 0 163 -29q78 -28 125 -88q47 -59 47 -153v-37l-92 -668h152v-86h-164l-59 -395l-9 -92q0 -19 4 -35 q2 -18 11 -33q8 -14 24 -14q39 0 58 35q18 26 31.5 57t35.5 90l78 -31q-55 -141 -115 -202q-61 -64 -137 -64q-139 0 -177 154l17 133l56 397h-590l-72 -375q-26 -131 -119 -219q-92 -90 -204 -90l-48 4q-122 18 -156 140zM637 723h592l80 522q20 97 20 164q0 94 -55 157.5 t-149 63.5q-60 0 -125.5 -28.5t-122.5 -79.5q-33 -29 -51 -51q-19 -25 -39 -60q-21 -37 -33 -71.5t-19 -71.5zM864 2175q10 23 18 35q7 10 9 14q12 25 53 25q52 0 105 -51l192 -187l-30 -65l-251 121q-86 45 -96 108z" />
<glyph unicode="&#xc1;" horiz-adv-x="1649" d="M5 166l85 47q9 -86 33 -123q23 -39 68 -47q157 0 198 223l65 371h-209v90h223l93 500q12 57 31 102q16 43 49 88q27 43 62 80t80 72q84 66 184 98q47 19 96 27t101 8q86 0 163 -29q78 -28 125 -88q47 -59 47 -153v-37l-92 -668h152v-86h-164l-59 -395l-9 -92q0 -19 4 -35 q2 -18 11 -33q8 -14 24 -14q39 0 58 35q18 26 31.5 57t35.5 90l78 -31q-55 -141 -115 -202q-61 -64 -137 -64q-139 0 -177 154l17 133l56 397h-590l-72 -375q-26 -131 -119 -219q-92 -90 -204 -90l-48 4q-122 18 -156 140zM637 723h592l80 522q20 97 20 164q0 94 -55 157.5 t-149 63.5q-60 0 -125.5 -28.5t-122.5 -79.5q-33 -29 -51 -51q-19 -25 -39 -60q-21 -37 -33 -71.5t-19 -71.5zM1028 2022l191 182q65 57 104 57q27 0 48.5 -20.5t21.5 -50.5q0 -29 -21.5 -56.5t-68.5 -50.5l-236 -121z" />
<glyph unicode="&#xc2;" horiz-adv-x="2085" d="M5 166l85 47q9 -86 33 -123q23 -39 68 -47q157 0 198 223l65 371h-209v90h223l93 500q12 57 31 102q16 43 49 88q27 43 62 80t80 72q84 66 184 98q47 19 96 27t101 8q86 0 163 -29q78 -28 125 -88q47 -59 47 -153v-37l-92 -668h152v-86h-164l-59 -395l-9 -92q0 -19 4 -35 q2 -18 11 -33q8 -14 24 -14q39 0 58 35q18 26 31.5 57t35.5 90l78 -31q-55 -141 -115 -202q-61 -64 -137 -64q-139 0 -177 154l17 133l56 397h-590l-72 -375q-26 -131 -119 -219q-92 -90 -204 -90l-48 4q-122 18 -156 140zM637 723h592l80 522q20 97 20 164q0 94 -55 157.5 t-149 63.5q-60 0 -125.5 -28.5t-122.5 -79.5q-33 -29 -51 -51q-19 -25 -39 -60q-21 -37 -33 -71.5t-19 -71.5zM948 2077l314 242l168 -254l-45 -45l-158 122l-215 -112z" />
<glyph unicode="&#xc3;" horiz-adv-x="1786" d="M5 166l85 47q9 -86 33 -123q23 -39 68 -47q157 0 198 223l65 371h-209v90h223l93 500q12 57 31 102q16 43 49 88q27 43 62 80t80 72q84 66 184 98q47 19 96 27t101 8q86 0 163 -29q78 -28 125 -88q47 -59 47 -153v-37l-92 -668h152v-86h-164l-59 -395l-9 -92q0 -19 4 -35 q2 -18 11 -33q8 -14 24 -14q39 0 58 35q18 26 31.5 57t35.5 90l78 -31q-55 -141 -115 -202q-61 -64 -137 -64q-139 0 -177 154l17 133l56 397h-590l-72 -375q-26 -131 -119 -219q-92 -90 -204 -90l-48 4q-122 18 -156 140zM637 723h592l80 522q20 97 20 164q0 94 -55 157.5 t-149 63.5q-60 0 -125.5 -28.5t-122.5 -79.5q-33 -29 -51 -51q-19 -25 -39 -60q-21 -37 -33 -71.5t-19 -71.5zM966 2097q33 54 52 78q19 25 35 41q14 15 38.5 27t51.5 18q49 0 100 -22q9 -4 29 -13q21 -8 27 -10l24 8l39 17q23 16 45 43l62 -41q-17 -47 -33 -76t-33 -47 q-35 -39 -98 -47q-45 0 -98 20q-56 21 -91 21q-18 0 -67 -35z" />
<glyph unicode="&#xc4;" horiz-adv-x="1688" d="M5 166l85 47q9 -86 33 -123q23 -39 68 -47q157 0 198 223l65 371h-209v90h223l93 500q12 57 31 102q16 43 49 88q27 43 62 80t80 72q84 66 184 98q47 19 96 27t101 8q86 0 163 -29q78 -28 125 -88q47 -59 47 -153v-37l-92 -668h152v-86h-164l-59 -395l-9 -92q0 -19 4 -35 q2 -18 11 -33q8 -14 24 -14q39 0 58 35q18 26 31.5 57t35.5 90l78 -31q-55 -141 -115 -202q-61 -64 -137 -64q-139 0 -177 154l17 133l56 397h-590l-72 -375q-26 -131 -119 -219q-92 -90 -204 -90l-48 4q-122 18 -156 140zM637 723h592l80 522q20 97 20 164q0 94 -55 157.5 t-149 63.5q-60 0 -125.5 -28.5t-122.5 -79.5q-33 -29 -51 -51q-19 -25 -39 -60q-21 -37 -33 -71.5t-19 -71.5zM1016 2118q0 45 31 78q35 30 80 30q47 -8 69 -38q23 -33 23 -74t-29 -74q-29 -35 -80 -35q-45 8 -69.5 41t-24.5 72zM1237 2118q0 43 31 75.5t74 32.5 q49 -6 70.5 -36.5t21.5 -75.5q0 -37 -29 -76q-33 -33 -76 -33q-49 6 -67 39q-25 31 -25 74z" />
<glyph unicode="&#xc5;" horiz-adv-x="1848" d="M6 166l84 47q9 -86 33 -123q23 -39 68 -47q157 0 198 223l66 371h-209v90h223l92 500q13 57 31 102q17 43 49 88q27 43 62 80t80 72q84 66 184 98q47 19 96 27t101 8q86 0 163 -29q78 -28 125 -88q47 -59 47 -153v-37l-92 -668h152v-86h-164l-59 -395l-9 -92q0 -19 4 -35 q2 -18 11 -33q8 -14 24 -14q39 0 58 35q18 26 31.5 57t35.5 90l78 -31q-55 -141 -115 -202q-61 -64 -137 -64q-139 0 -176 154l16 133l56 397h-590l-72 -375q-26 -131 -119 -219q-92 -90 -204 -90l-48 4q-122 18 -155 140zM637 723h592l80 522q20 97 20 164q0 94 -55 157.5 t-149 63.5q-60 0 -125.5 -28.5t-122.5 -79.5q-33 -29 -51 -51q-19 -25 -39 -60q-21 -37 -33 -71.5t-19 -71.5zM909 2095q0 88 64 149.5t145 61.5q89 0 152 -63q61 -66 61 -150q0 -92 -63 -153q-66 -62 -147 -62q-89 0 -150.5 63.5t-61.5 153.5zM1046 2093q0 -32 23 -55 t54 -23q26 0 53 23q18 23 22 57q0 33 -22 54q-21 22 -53 22q-31 0 -54 -24q-19 -17 -23 -54z" />
<glyph unicode="&#xc6;" horiz-adv-x="1983" d="M9 164l73 45q21 -59 33 -88q10 -31 18 -43q19 -25 56 -31q155 0 192 218l63 364h-199l1 84h213l88 490q29 141 115 244q84 100 213 161t266 61q160 0 244 -77q129 90 288 90q97 0 189 -37q90 -37 145 -103q66 -71 66 -168q0 -36 -19 -59q-8 -12 -24 -18l-35 -7 q-78 0 -111 70q-34 68 -45 156l9 47q-9 6 -54 20q-26 6 -57 13q-33 6 -55 6q-78 0 -154 -39q-72 -41 -119 -143q-17 -37 -25 -87q-10 -49 -10 -118q0 -51 4 -78t14 -53q48 -136 238 -136h119v-81l-108 -2q-58 0 -111 12q-55 10 -104 31q-21 -13 -43.5 -27t-46.5 -37 q-48 -36 -93 -131q-24 -51 -36 -109q-13 -57 -13 -137q0 -55 10 -106.5t27 -98.5q35 -90 119 -149.5t233 -77.5l43 -2q70 0 146 30.5t129 82.5q53 49 98 131q21 37 33 84q10 47 16 110h80q0 -69 -12 -118.5t-37 -104.5q-43 -90 -117 -162q-73 -67 -172 -111 q-53 -21 -108 -33q-58 -14 -113 -14q-92 0 -174 18q-84 18 -160 54q-149 72 -201 209q-20 55 -31.5 110.5t-11.5 127.5l14 103l15 82h-412l-67 -370q-19 -82 -64 -155q-49 -72 -116 -110q-66 -41 -140 -41l-45 4q-55 13 -94 61q-41 47 -73 143zM622 709h420q27 53 55 92 q27 37 66 70q61 49 156 92q-136 117 -136 291q0 82 25 143q12 47 66 102q-21 41 -63 66q-52 33 -111 33q-72 0 -156 -43q-86 -43 -149 -123q-66 -82 -80 -188z" />
<glyph unicode="&#xc7;" horiz-adv-x="1327" d="M90 428l7 105l59 512q18 184 116.5 335.5t237.5 228.5q150 84 314 84q104 0 215 -32q102 -41 176 -162q73 -120 73 -335q0 -125 -36 -240q-39 -115 -125 -199q-86 -86 -209 -86l-84 13q-123 26 -178 139q-58 112 -58 264q0 72 17 123q14 51 41 92q18 27 43 55 q22 27 77 82l15 -102q-62 -70 -80 -133q-21 -66 -21 -150q0 -129 43 -201q41 -73 136 -88l39 -4q88 0 155 64q68 63 105 176q16 53 26 113q10 57 10 112q0 109 -43 207q-45 98 -124 156q-80 55 -189 55q-59 0 -113.5 -14.5t-103.5 -44.5q-51 -31 -98 -76t-80 -96 q-35 -52 -57 -115q-23 -66 -31 -133l-70 -547l-8 -76l-4 -57q0 -320 239 -420q70 -35 150 -35q78 0 156 31q77 29 143 84q63 53 104 125q19 35 31 80q12 43 21 104l86 -18q-39 -166 -113 -269q-76 -104 -195.5 -166.5t-248.5 -62.5q-47 0 -78 4t-58 10l9 18 q32 -10 50.5 -24.5t35.5 -32.5q14 -21 24 -47q0 -113 -74 -162q-73 -49 -169 -49h-138v86h82q27 0 53 10q27 10 50 27q39 26 39 76q-15 18 -64 24h-123l90 84l35 4l6 13q-69 24 -106 53q-47 29 -105 90q-28 31 -53 74q-27 41 -41 80q-31 86 -31 184z" />
<glyph unicode="&#xc8;" horiz-adv-x="1788" d="M57 445q0 114 39 223q31 108 105 190q65 82 176 119l25 8q-136 113 -136 295q0 123 72 226q39 51 84 88q43 34 103 61q110 51 235 51q90 0 182 -30q54 -21 89.5 -41.5t70.5 -57.5q66 -71 66 -168v-35q0 -6 4 -6h2q4 0 16 15q-35 0 -51 -29q-16 -31 -37 -39 q-68 10 -111 72q-45 61 -57 174l4 22q-33 27 -73 37q-44 10 -97 10q-82 0 -153 -47q-68 -41 -113 -116q-20 -39 -33 -80q-14 -43 -14 -82v-29v-22q-4 -15 -4 -21q0 -55 14 -102q14 -49 39 -88q35 -41 90 -58q53 -18 127 -18l121 6v-88h-141h-88q-23 6 -37 10q-33 10 -78 31 q-86 -41 -135 -109q-60 -79 -82.5 -172.5t-22.5 -203.5q0 -111 43 -201q37 -82 129 -139q52 -33 111 -52q59 -18 129 -18q127 0 235 55q56 29 97 66q39 35 75 90q37 53 55.5 107.5t18.5 129.5h82q0 -98 -26.5 -172.5t-71.5 -138.5q-82 -117 -209 -174q-64 -33 -131.5 -50.5 t-138.5 -17.5h-13l-28 -2q-64 0 -111 6q-49 6 -102 25q-52 14 -93 37q-43 23 -86 57q-81 66 -121 154q-18 47 -31.5 112.5t-13.5 129.5zM545 2341q10 23 18 35q7 10 9 14q12 25 53 25q51 0 104 -51l193 -187l-31 -65l-250 121q-86 45 -96 108z" />
<glyph unicode="&#xc9;" horiz-adv-x="1055" d="M57 445q0 114 39 223q31 108 105 190q65 82 176 119l25 8q-136 113 -136 295q0 123 72 226q39 51 84 88q43 34 103 61q110 51 235 51q90 0 182 -30q54 -21 89.5 -41.5t70.5 -57.5q66 -71 66 -168v-35q0 -6 4 -6h2q4 0 16 15q-35 0 -51 -29q-16 -31 -37 -39 q-68 10 -111 72q-45 61 -57 174l4 22q-33 27 -73 37q-44 10 -97 10q-82 0 -153 -47q-68 -41 -113 -116q-20 -39 -33 -80q-14 -43 -14 -82v-29v-22q-4 -15 -4 -21q0 -55 14 -102q14 -49 39 -88q35 -41 90 -58q53 -18 127 -18l121 6v-88h-141h-88q-23 6 -37 10q-33 10 -78 31 q-86 -41 -135 -109q-60 -79 -82.5 -172.5t-22.5 -203.5q0 -111 43 -201q37 -82 129 -139q52 -33 111 -52q59 -18 129 -18q127 0 235 55q56 29 97 66q39 35 75 90q37 53 55.5 107.5t18.5 129.5h82q0 -98 -26.5 -172.5t-71.5 -138.5q-82 -117 -209 -174q-64 -33 -131.5 -50.5 t-138.5 -17.5h-13l-28 -2q-64 0 -111 6q-49 6 -102 25q-52 14 -93 37q-43 23 -86 57q-81 66 -121 154q-18 47 -31.5 112.5t-13.5 129.5zM637 2071l191 182q65 57 104 57q27 0 48.5 -20.5t21.5 -50.5q0 -29 -21.5 -56.5t-68.5 -50.5l-236 -121z" />
<glyph unicode="&#xca;" horiz-adv-x="1327" d="M57 445q0 114 39 223q31 108 105 190q65 82 176 119l25 8q-136 113 -136 295q0 123 72 226q39 51 84 88q43 34 103 61q110 51 235 51q90 0 182 -30q54 -21 89.5 -41.5t70.5 -57.5q66 -71 66 -168v-35q0 -6 4 -6h2q4 0 16 15q-35 0 -51 -29q-16 -31 -37 -39 q-68 10 -111 72q-45 61 -57 174l4 22q-33 27 -73 37q-44 10 -97 10q-82 0 -153 -47q-68 -41 -113 -116q-20 -39 -33 -80q-14 -43 -14 -82v-29v-22q-4 -15 -4 -21q0 -55 14 -102q14 -49 39 -88q35 -41 90 -58q53 -18 127 -18l121 6v-88h-141h-88q-23 6 -37 10q-33 10 -78 31 q-86 -41 -135 -109q-60 -79 -82.5 -172.5t-22.5 -203.5q0 -111 43 -201q37 -82 129 -139q52 -33 111 -52q59 -18 129 -18q127 0 235 55q56 29 97 66q39 35 75 90q37 53 55.5 107.5t18.5 129.5h82q0 -98 -26.5 -172.5t-71.5 -138.5q-82 -117 -209 -174q-64 -33 -131.5 -50.5 t-138.5 -17.5h-13l-28 -2q-64 0 -111 6q-49 6 -102 25q-52 14 -93 37q-43 23 -86 57q-81 66 -121 154q-18 47 -31.5 112.5t-13.5 129.5zM498 2063l313 241l168 -254l-45 -45l-158 123l-215 -113z" />
<glyph unicode="&#xcb;" horiz-adv-x="1426" d="M57 445q0 114 39 223q31 108 105 190q65 82 176 119l25 8q-136 113 -136 295q0 123 72 226q39 51 84 88q43 34 103 61q110 51 235 51q90 0 182 -30q54 -21 89.5 -41.5t70.5 -57.5q66 -71 66 -168v-35q0 -6 4 -6h2q4 0 16 15q-35 0 -51 -29q-16 -31 -37 -39 q-68 10 -111 72q-45 61 -57 174l4 22q-33 27 -73 37q-44 10 -97 10q-82 0 -153 -47q-68 -41 -113 -116q-20 -39 -33 -80q-14 -43 -14 -82v-29v-22q-4 -15 -4 -21q0 -55 14 -102q14 -49 39 -88q35 -41 90 -58q53 -18 127 -18l121 6v-88h-141h-88q-23 6 -37 10q-33 10 -78 31 q-86 -41 -135 -109q-60 -79 -82.5 -172.5t-22.5 -203.5q0 -111 43 -201q37 -82 129 -139q52 -33 111 -52q59 -18 129 -18q127 0 235 55q56 29 97 66q39 35 75 90q37 53 55.5 107.5t18.5 129.5h82q0 -98 -26.5 -172.5t-71.5 -138.5q-82 -117 -209 -174q-64 -33 -131.5 -50.5 t-138.5 -17.5h-13l-28 -2q-64 0 -111 6q-49 6 -102 25q-52 14 -93 37q-43 23 -86 57q-81 66 -121 154q-18 47 -31.5 112.5t-13.5 129.5zM512 2231q0 45 31 77q35 31 80 31q47 -8 69 -39q23 -33 23 -74t-29 -73q-28 -35 -80 -35q-45 8 -69.5 41t-24.5 72zM733 2231 q0 43 31 75q31 33 74 33q49 -6 72 -37q20 -31 20 -76q0 -36 -29 -75q-32 -33 -75 -33q-50 6 -68 39q-25 31 -25 74z" />
<glyph unicode="&#xcc;" horiz-adv-x="852" d="M2 33q49 16 92 26.5t76 12.5l226 1544l-162 -20v75q65 13 131 19q63 6 104 6q68 0 133 -8q66 -8 163 -31l-19 -80q-49 12 -80 21q-57 14 -90 14l-226 -1538l27 -4q21 -4 37 -6q16 -4 27 -8l90 -19l-19 -78q-71 14 -135.5 20t-112.5 6q-63 0 -106 -4q-45 -4 -156 -22v74z M406 2325q10 22 19 35l7 14q13 24 54 24q51 0 104 -51l193 -186l-31 -66l-249 121q-87 45 -97 109z" />
<glyph unicode="&#xcd;" horiz-adv-x="951" d="M1 33q49 16 92 26.5t76 12.5l226 1544l-162 -20v75q66 13 132 19q63 6 104 6q68 0 133 -8q66 -8 162 -31l-18 -80q-49 12 -80 21q-57 14 -90 14l-226 -1538l27 -4q20 -4 36 -6q17 -4 27 -8l90 -19l-18 -78q-71 14 -135.5 20t-112.5 6q-63 0 -106 -4q-46 -4 -157 -22v74z M399 1958l191 182q66 58 105 58q26 0 49 -21q20 -20 20 -51q0 -29 -20 -55q-23 -29 -70 -51l-235 -121z" />
<glyph unicode="&#xce;" horiz-adv-x="1000" d="M1 33q49 16 92 26.5t76 12.5l226 1544l-162 -20v75q66 13 132 19q63 6 104 6q68 0 133 -8q66 -8 162 -31l-18 -80q-49 12 -80 21q-57 14 -90 14l-226 -1538l27 -4q20 -4 36 -6q17 -4 27 -8l90 -19l-18 -78q-71 14 -135.5 20t-112.5 6q-63 0 -106 -4q-46 -4 -157 -22v74z M254 2044l314 242l167 -254l-45 -45l-157 123l-215 -113z" />
<glyph unicode="&#xcf;" horiz-adv-x="934" d="M2 33q49 16 92 26.5t76 12.5l226 1544l-162 -20v75q65 13 131 19q63 6 104 6q68 0 133 -8q66 -8 163 -31l-19 -80q-49 12 -80 21q-57 14 -90 14l-226 -1538l27 -4q21 -4 37 -6q16 -4 27 -8l90 -19l-19 -78q-71 14 -135.5 20t-112.5 6q-63 0 -106 -4q-45 -4 -156 -22v74z M375 2222q0 45 31 78q35 31 80 31q47 -8 69 -39q23 -33 23 -74t-29 -73q-29 -35 -80 -35q-45 8 -69.5 40.5t-24.5 71.5zM597 2222q0 43 30 76q31 33 74 33q49 -6 70.5 -37t21.5 -76q0 -37 -29 -76q-33 -32 -76 -32q-49 6 -67 39q-24 30 -24 73z" />
<glyph unicode="&#xd0;" horiz-adv-x="1479" d="M-33 637v193h159v667h538q160 0 266 -20q74 -19 127 -43q51 -27 100 -70q123 -100 185 -262q59 -162 59 -360q0 -228 -74 -400q-39 -86 -82 -147q-45 -62 -98 -98q-104 -75 -239 -112q-78 -16 -222 -16h-560v668h-159zM383 203h283q131 0 211 27q78 24 127 67 q63 70 100 178q34 107 34 269q0 161 -34 262q-37 98 -96 155q-51 56 -125 80q-78 20 -223 20h-277v-431h404v-193h-404v-434z" />
<glyph unicode="&#xd1;" horiz-adv-x="1606" d="M90 1333v82q0 70 35 138q35 65 96 108q60 41 123 41l43 -4q52 -10 80 -68q29 -59 29 -161q0 -84 -33 -289l-141 -899l217 665q49 150 117 281q67 129 153 238q84 108 185 176q98 65 202 65q49 0 84 -8t66 -31q31 -16 49 -57q16 -43 16 -111q0 -45 -10 -125 q-10 -79 -37 -200q-6 -31 -14 -76q-10 -47 -12 -53l-170 -867l-4 -34l-5 -33q2 -17 2 -23t3 -16l20 -6q39 0 74 45q16 22 55 88q25 43 51 88l78 -31l-63 -112q-27 -56 -60 -95q-31 -43 -80 -78q-51 -35 -106 -35q-142 0 -160 161l10 71l11 66l200 983l13 65l14 101 q8 49 8 94q0 53 -22 86q-25 31 -70 31q-76 0 -176 -93q-103 -94 -193 -243.5t-135 -280.5l-289 -895q-20 -63 -47 -99q-33 -51 -94 -51q-82 0 -94 134l8 76l25 155l172 1047q8 59 12 102t4 82q0 35 -2 49q-6 17 -6 23q-4 10 -23 10q-22 0 -53 -27q-33 -26 -55 -69 q-25 -43 -25 -90v-91h-76zM555 2077q33 53 51 78q19 24 35 41q15 14 39 26q25 13 51 19q50 0 101 -23q8 -4 28 -12q21 -8 27 -10l25 8l39 16q22 17 45 43l61 -41q-16 -47 -33 -75q-16 -29 -33 -48q-34 -38 -98 -47q-45 0 -98 21q-55 20 -90 20q-19 0 -68 -35z" />
<glyph unicode="&#xd2;" horiz-adv-x="1809" d="M112 742q0 151 41 292q41 142 124 271q82 127 211 223t305 143q57 19 131 27q72 8 147 8q82 0 137.5 -6t122.5 -29q119 -32 228 -108q108 -70 184 -178q39 -56 70 -119q31 -66 51 -137q35 -105 35 -252q0 -232 -108 -447q-111 -215 -298 -346q-96 -71 -196 -108 q-101 -39 -211 -39l-103 -3q-116 0 -192 9.5t-158 33.5q-149 44 -256 132q-106 86 -166 205q-31 63 -54 135q-22 69 -32 149zM316 762l4 -84q13 -135 51 -246q39 -110 110.5 -200t188.5 -149q61 -29 129 -45q68 -19 143 -19q211 0 387 108q177 109 279 298.5t102 414.5 q0 80 -12 160q-20 141 -86 258q-31 57 -70 104t-90 90q-92 76 -219 119t-264 43q-98 0 -182 -31.5t-162 -97.5q-148 -119 -227 -315q-82 -197 -82 -408zM774 2335q11 22 19 35q6 10 8 14q12 25 53 25q51 0 105 -52l192 -186l-30 -65l-250 120q-86 45 -97 109z" />
<glyph unicode="&#xd3;" horiz-adv-x="1901" d="M112 742q0 151 41 292q41 142 124 271q82 127 211 223t305 143q57 19 131 27q72 8 147 8q82 0 137.5 -6t122.5 -29q119 -32 228 -108q108 -70 184 -178q39 -56 70 -119q31 -66 51 -137q35 -105 35 -252q0 -232 -108 -447q-111 -215 -298 -346q-96 -71 -196 -108 q-101 -39 -211 -39l-103 -3q-116 0 -192 9.5t-158 33.5q-149 44 -256 132q-106 86 -166 205q-31 63 -54 135q-22 69 -32 149zM316 762l4 -84q13 -135 51 -246q39 -110 110.5 -200t188.5 -149q61 -29 129 -45q68 -19 143 -19q211 0 387 108q177 109 279 298.5t102 414.5 q0 80 -12 160q-20 141 -86 258q-31 57 -70 104t-90 90q-92 76 -219 119t-264 43q-98 0 -182 -31.5t-162 -97.5q-148 -119 -227 -315q-82 -197 -82 -408zM873 2140l190 183q66 57 105 57q26 0 49 -20q20 -21 20 -52q0 -28 -20 -55q-23 -29 -70 -51l-235 -121z" />
<glyph unicode="&#xd4;" horiz-adv-x="1983" d="M112 742q0 151 41 292q41 142 124 271q82 127 211 223t305 143q57 19 131 27q72 8 147 8q82 0 137.5 -6t122.5 -29q119 -32 228 -108q108 -70 184 -178q39 -56 70 -119q31 -66 51 -137q35 -105 35 -252q0 -232 -108 -447q-111 -215 -298 -346q-96 -71 -196 -108 q-101 -39 -211 -39l-103 -3q-116 0 -192 9.5t-158 33.5q-149 44 -256 132q-106 86 -166 205q-31 63 -54 135q-22 69 -32 149zM316 762l4 -84q13 -135 51 -246q39 -110 110.5 -200t188.5 -149q61 -29 129 -45q68 -19 143 -19q211 0 387 108q177 109 279 298.5t102 414.5 q0 80 -12 160q-20 141 -86 258q-31 57 -70 104t-90 90q-92 76 -219 119t-264 43q-98 0 -182 -31.5t-162 -97.5q-148 -119 -227 -315q-82 -197 -82 -408zM721 2050l313 242l168 -254l-45 -45l-157 123l-215 -113z" />
<glyph unicode="&#xd5;" horiz-adv-x="1983" d="M112 742q0 151 41 292q41 142 124 271q82 127 211 223t305 143q57 19 131 27q72 8 147 8q82 0 137.5 -6t122.5 -29q119 -32 228 -108q108 -70 184 -178q39 -56 70 -119q31 -66 51 -137q35 -105 35 -252q0 -232 -108 -447q-111 -215 -298 -346q-96 -71 -196 -108 q-101 -39 -211 -39l-103 -3q-116 0 -192 9.5t-158 33.5q-149 44 -256 132q-106 86 -166 205q-31 63 -54 135q-22 69 -32 149zM316 762l4 -84q13 -135 51 -246q39 -110 110.5 -200t188.5 -149q61 -29 129 -45q68 -19 143 -19q211 0 387 108q177 109 279 298.5t102 414.5 q0 80 -12 160q-20 141 -86 258q-31 57 -70 104t-90 90q-92 76 -219 119t-264 43q-98 0 -182 -31.5t-162 -97.5q-148 -119 -227 -315q-82 -197 -82 -408zM776 2011q33 54 52 78q18 25 33.5 40.5t39.5 27.5q25 12 52 18q49 0 100 -22q8 -4 29 -13q20 -8 26 -10l25 8l39 17 q22 16 45 43l61 -41q-16 -47 -33 -76q-16 -29 -32 -47q-35 -39 -99 -47q-45 0 -98 20q-55 21 -90 21q-18 0 -68 -35z" />
<glyph unicode="&#xd6;" horiz-adv-x="1917" d="M112 742q0 151 41 292q41 142 124 271q82 127 211 223t305 143q57 19 131 27q72 8 147 8q82 0 137.5 -6t122.5 -29q119 -32 228 -108q108 -70 184 -178q39 -56 70 -119q31 -66 51 -137q35 -105 35 -252q0 -232 -108 -447q-111 -215 -298 -346q-96 -71 -196 -108 q-101 -39 -211 -39l-103 -3q-116 0 -192 9.5t-158 33.5q-149 44 -256 132q-106 86 -166 205q-31 63 -54 135q-22 69 -32 149zM316 762l4 -84q13 -135 51 -246q39 -110 110.5 -200t188.5 -149q61 -29 129 -45q68 -19 143 -19q211 0 387 108q177 109 279 298.5t102 414.5 q0 80 -12 160q-20 141 -86 258q-31 57 -70 104t-90 90q-92 76 -219 119t-264 43q-98 0 -182 -31.5t-162 -97.5q-148 -119 -227 -315q-82 -197 -82 -408zM686 2083q0 45 31 78q35 31 80 31q47 -9 70 -39q22 -33 22 -74t-29 -74q-28 -35 -79 -35q-46 9 -70 41q-25 33 -25 72z M908 2083q0 43 30 76q31 33 74 33q49 -7 72 -37q20 -31 20 -76q0 -37 -29 -76q-32 -33 -75 -33q-49 7 -68 39q-24 31 -24 74z" />
<glyph unicode="&#xd7;" horiz-adv-x="1196" d="M116 410l314 315l-314 316l171 163l311 -313l316 316l161 -168l-311 -314l313 -311l-163 -170l-316 313l-315 -311z" />
<glyph unicode="&#xd8;" horiz-adv-x="1893" d="M111 699v32q0 185 74 357q73 170 210.5 313t309.5 225q170 82 354 82q182 0 338 -71l68 120l84 -20l-70 -137q55 -33 100 -70q45 -39 86 -90q90 -113 135 -250q43 -137 43 -276q0 -179 -63 -342q-29 -82 -72 -158q-43 -78 -96 -145q-55 -68 -119 -123q-63 -56 -139 -99 q-76 -45 -154 -70q-79 -24 -157 -24h-103q-223 0 -352 49l-63 -131l-78 43l61 121q-137 62 -239 193q-50 65 -89 163q-38 97 -59 209q-10 78 -10 99zM303 754l4 -66q0 -69 17 -135q14 -67 41 -127q22 -57 47 -100q22 -43 55 -84q47 -55 105 -94l764 1378q-80 41 -152 63 q-74 23 -152 23l-53 2q-137 0 -260 -72.5t-215 -199.5q-94 -127 -147 -287q-25 -78 -39 -154q-15 -75 -15 -147zM647 103q54 -25 123 -41q68 -19 135 -19q179 0 324 74t242 197q94 120 147 266q49 153 49 282q0 111 -30 222q-33 110 -58 161q-12 25 -49 80q-59 95 -125 148z " />
<glyph unicode="&#xd9;" horiz-adv-x="1743" d="M99 1297q0 61 8 98q6 35 24 92q25 90 78 156q51 63 131 63q84 0 125 -53q45 -51 45 -133q0 -49 -8 -115l-159 -960q-8 -35 -13.5 -80t-5.5 -109q0 -143 53 -174q57 -37 123 -43q68 0 145 41q41 23 76 49q33 25 74 66q78 84 137 190q59 107 100 240l271 938q8 26 20 55 q13 27 23 45q35 47 98 47q35 0 59 -37q23 -36 23 -112q0 -49 -18 -209l-156 -1049l-21 -170q0 -69 27 -77l19 -5q49 0 88 64q24 41 42.5 86t30.5 106h80q-37 -178 -100 -274q-70 -107 -182 -107q-93 0 -142 64q-49 61 -49 154l14 118l15 105l157 1001l-215 -755 q-39 -150 -110 -277q-37 -65 -74 -117q-37 -51 -84 -98q-49 -47 -92 -80q-45 -33 -98 -60q-105 -49 -205 -49l-62 4q-125 21 -182 113q-59 93 -59 246q0 72 15 180q14 86 20 131l149 857q8 32 8 65q0 47 -22 59l-21 5q-51 0 -76.5 -76t-36 -117t-10.5 -102h-77zM561 2421 q11 23 19 35q6 10 8 14q12 25 53 25q51 0 105 -51l192 -187l-30 -65l-250 120q-86 45 -97 109z" />
<glyph unicode="&#xda;" horiz-adv-x="1608" d="M99 1297q0 61 8 98q6 35 24 92q25 90 78 156q51 63 131 63q84 0 125 -53q45 -51 45 -133q0 -49 -8 -115l-159 -960q-8 -35 -13.5 -80t-5.5 -109q0 -143 53 -174q57 -37 123 -43q68 0 145 41q41 23 76 49q33 25 74 66q78 84 137 190q59 107 100 240l271 938q8 26 20 55 q13 27 23 45q35 47 98 47q35 0 59 -37q23 -36 23 -112q0 -49 -18 -209l-156 -1049l-21 -170q0 -69 27 -77l19 -5q49 0 88 64q24 41 42.5 86t30.5 106h80q-37 -178 -100 -274q-70 -107 -182 -107q-93 0 -142 64q-49 61 -49 154l14 118l15 105l157 1001l-215 -755 q-39 -150 -110 -277q-37 -65 -74 -117q-37 -51 -84 -98q-49 -47 -92 -80q-45 -33 -98 -60q-105 -49 -205 -49l-62 4q-125 21 -182 113q-59 93 -59 246q0 72 15 180q14 86 20 131l149 857q8 32 8 65q0 47 -22 59l-21 5q-51 0 -76.5 -76t-36 -117t-10.5 -102h-77zM742 2222 l190 183q66 57 105 57q26 0 49 -21q20 -20 20 -51q0 -28 -20 -55q-23 -29 -70 -51l-235 -121z" />
<glyph unicode="&#xdb;" horiz-adv-x="2138" d="M99 1297q0 61 8 98q6 35 24 92q25 90 78 156q51 63 131 63q84 0 125 -53q45 -51 45 -133q0 -49 -8 -115l-159 -960q-8 -35 -13.5 -80t-5.5 -109q0 -143 53 -174q57 -37 123 -43q68 0 145 41q41 23 76 49q33 25 74 66q78 84 137 190q59 107 100 240l271 938q8 26 20 55 q13 27 23 45q35 47 98 47q35 0 59 -37q23 -36 23 -112q0 -49 -18 -209l-156 -1049l-21 -170q0 -69 27 -77l19 -5q49 0 88 64q24 41 42.5 86t30.5 106h80q-37 -178 -100 -274q-70 -107 -182 -107q-93 0 -142 64q-49 61 -49 154l14 118l15 105l157 1001l-215 -755 q-39 -150 -110 -277q-37 -65 -74 -117q-37 -51 -84 -98q-49 -47 -92 -80q-45 -33 -98 -60q-105 -49 -205 -49l-62 4q-125 21 -182 113q-59 93 -59 246q0 72 15 180q14 86 20 131l149 857q8 32 8 65q0 47 -22 59l-21 5q-51 0 -76.5 -76t-36 -117t-10.5 -102h-77zM590 2347 l313 242l168 -254l-45 -45l-157 123l-215 -113z" />
<glyph unicode="&#xdc;" horiz-adv-x="1438" d="M99 1297q0 61 8 98q6 35 24 92q25 90 78 156q51 63 131 63q84 0 125 -53q45 -51 45 -133q0 -49 -8 -115l-159 -960q-8 -35 -13.5 -80t-5.5 -109q0 -143 53 -174q57 -37 123 -43q68 0 145 41q41 23 76 49q33 25 74 66q78 84 137 190q59 107 100 240l271 938q8 26 20 55 q13 27 23 45q35 47 98 47q35 0 59 -37q23 -36 23 -112q0 -49 -18 -209l-156 -1049l-21 -170q0 -69 27 -77l19 -5q49 0 88 64q24 41 42.5 86t30.5 106h80q-37 -178 -100 -274q-70 -107 -182 -107q-93 0 -142 64q-49 61 -49 154l14 118l15 105l157 1001l-215 -755 q-39 -150 -110 -277q-37 -65 -74 -117q-37 -51 -84 -98q-49 -47 -92 -80q-45 -33 -98 -60q-105 -49 -205 -49l-62 4q-125 21 -182 113q-59 93 -59 246q0 72 15 180q14 86 20 131l149 857q8 32 8 65q0 47 -22 59l-21 5q-51 0 -76.5 -76t-36 -117t-10.5 -102h-77zM688 2271 q0 46 31 78q35 31 80 31q47 -8 70 -39q22 -33 22 -74t-29 -73q-28 -35 -79 -35q-45 8 -70 41t-25 71zM910 2271q0 43 30 76q31 33 74 33q49 -6 72 -37q20 -31 20 -76q0 -36 -29 -75q-32 -33 -75 -33q-49 6 -68 39q-24 30 -24 73z" />
<glyph unicode="&#xdd;" horiz-adv-x="1526" d="M-86 1348q0 92 41 176q39 84 115 137q74 53 162 53q92 0 176 -59q84 -55 160 -215q67 -147 114 -350l33 69q57 117 115 211q51 82 121 168q63 78 135 123q69 43 147 58h23q55 0 96 -35q39 -37 39 -97q0 -53 -35 -90q-37 -47 -88 -47q-109 0 -145 133q0 -6 2 -10h16 l-12 -4q-80 -33 -176 -174q-102 -160 -192 -350l-54 -123l-127 -852l76 -10l141 -15l-27 -88q-84 12 -166 18t-133 6q-94 0 -153 -6q-82 -14 -129 -20l-9 84q78 14 107 19q74 12 119 12l131 846q-15 98 -51 231q-25 109 -82 227q-43 95 -111 162q-63 58 -133 58 q-37 0 -68 -35q-39 -35 -67 -96q-17 -41 -21 -68q-6 -29 -6 -55q0 -27 15 -78l38 -86l-78 -31q-29 53 -43 105q-16 51 -16 98zM677 2179l190 183q65 57 104 57q27 0 49 -21q21 -20 21 -51q0 -28 -20 -55q-23 -29 -70 -51l-236 -121z" />
<glyph unicode="&#xde;" horiz-adv-x="1366" d="M126 -31v1528h257v-299h328q151 0 250 -16q96 -16 174 -72q76 -55 125 -157q49 -105 49 -209q0 -197 -129 -338q-64 -68 -174.5 -103t-278.5 -35h-344v-299h-257zM383 502h348q177 0 246 62.5t69 173.5q0 86 -38 141q-39 53 -107 74q-47 11 -174 11h-344v-462z" />
<glyph unicode="&#xdf;" horiz-adv-x="723" d="M66 750l24 80h125l54 371q20 151 81 262q62 110 193 110q123 -12 174 -117q29 -49 46 -104q14 -57 14 -123l2 -43q0 -137 -70 -248q-23 -37 -55 -73q-45 -49 -64 -59l-31 8q109 -31 166 -126q27 -49 41.5 -98t14.5 -108q0 -121 -53.5 -246t-147.5 -207q-96 -85 -211 -85 q-25 0 -47 13q-23 10 -41 33q-21 20 -33 53l-10 -76l-152 -14l119 797h-139zM269 185l20 12q59 0 88 -57q27 -41 27 -101q67 14 121 86q51 72 75.5 179.5t24.5 201.5q0 57 -8 96q-10 37 -35 78q-41 74 -119 74l-102 7v38zM367 838l76 8q73 10 114 100q35 72 54 162 q18 88 18 174q0 109 -25 164q-26 53 -67 53q-27 0 -45 -22q-10 -8 -19 -23q-8 -16 -14 -32l-20 -105z" />
<glyph unicode="&#xe0;" d="M57 244q0 51 8 102q6 50 21 107q27 104 82 194q53 91 139 150q86 57 205 57q33 0 51 -2q17 -4 41 -12l43 -25l5 15h139l-37 -203l-25 -145l-30 -216l-13 -135q0 -59 9 -63l6 10q4 4 14 19q2 4 14 22l21 47l26 70l70 -53q-53 -119 -92 -168q-45 -71 -127 -71q-33 0 -57 48 q-27 47 -27 135l4 51l8 88q-14 -24 -28 -51q-17 -26 -37 -55q-37 -53 -66 -84q-28 -33 -67 -66q-76 -66 -152 -66q-72 11 -111 101q-14 37 -25 90q-12 54 -12 109zM104 1356q10 23 19 35q6 10 8 14q13 25 54 25q51 0 104 -51l193 -187l-31 -65l-251 120q-86 46 -96 109z M239 219q0 -125 46 -159q12 0 31 18q18 16 53 55t67 88q33 48 64 101q59 108 88 213l41 188q-49 45 -104 45q-97 0 -158.5 -92t-92.5 -221q-16 -70 -24 -121q-11 -53 -11 -115z" />
<glyph unicode="&#xe1;" horiz-adv-x="776" d="M57 244q0 51 8 102q6 50 21 107q27 104 82 194q53 91 139 150q86 57 205 57q33 0 51 -2q17 -4 41 -12l43 -25l5 15h139l-37 -203l-25 -145l-30 -216l-13 -135q0 -59 9 -63l6 10q4 4 14 19q2 4 14 22l21 47l26 70l70 -53q-53 -119 -92 -168q-45 -71 -127 -71q-33 0 -57 48 q-27 47 -27 135l4 51l8 88q-14 -24 -28 -51q-17 -26 -37 -55q-37 -53 -66 -84q-28 -33 -67 -66q-76 -66 -152 -66q-72 11 -111 101q-14 37 -25 90q-12 54 -12 109zM239 219q0 -125 46 -159q12 0 31 18q18 16 53 55t67 88q33 48 64 101q59 108 88 213l41 188q-49 45 -104 45 q-97 0 -158.5 -92t-92.5 -221q-16 -70 -24 -121q-11 -53 -11 -115zM248 1164l191 182q65 57 104 57q27 0 48.5 -20.5t21.5 -51.5q0 -28 -21 -55q-22 -29 -70 -51l-235 -121z" />
<glyph unicode="&#xe2;" horiz-adv-x="776" d="M57 244q0 51 8 102q6 50 21 107q27 104 82 194q53 91 139 150q86 57 205 57q33 0 51 -2q17 -4 41 -12l43 -25l5 15h139l-37 -203l-25 -145l-30 -216l-13 -135q0 -59 9 -63l6 10q4 4 14 19q2 4 14 22l21 47l26 70l70 -53q-53 -119 -92 -168q-45 -71 -127 -71q-33 0 -57 48 q-27 47 -27 135l4 51l8 88q-14 -24 -28 -51q-17 -26 -37 -55q-37 -53 -66 -84q-28 -33 -67 -66q-76 -66 -152 -66q-72 11 -111 101q-14 37 -25 90q-12 54 -12 109zM194 1028l314 242l168 -254l-45 -45l-158 123l-215 -113zM239 219q0 -125 46 -159q12 0 31 18q18 16 53 55 t67 88q33 48 64 101q59 108 88 213l41 188q-49 45 -104 45q-97 0 -158.5 -92t-92.5 -221q-16 -70 -24 -121q-11 -53 -11 -115z" />
<glyph unicode="&#xe3;" d="M57 244q0 51 8 102q6 50 21 107q27 104 82 194q53 91 139 150q86 57 205 57q33 0 51 -2q17 -4 41 -12l43 -25l5 15h139l-37 -203l-25 -145l-30 -216l-13 -135q0 -59 9 -63l6 10q4 4 14 19q2 4 14 22l21 47l26 70l70 -53q-53 -119 -92 -168q-45 -71 -127 -71q-33 0 -57 48 q-27 47 -27 135l4 51l8 88q-14 -24 -28 -51q-17 -26 -37 -55q-37 -53 -66 -84q-28 -33 -67 -66q-76 -66 -152 -66q-72 11 -111 101q-14 37 -25 90q-12 54 -12 109zM96 1000q33 53 51 77q19 25 36 41q14 15 38 27q25 12 52 19q49 0 100 -23q8 -4 28.5 -12t26.5 -11l25 9 l39 16q22 16 45 43l61 -41q-16 -47 -33 -76q-16 -28 -32 -47q-35 -39 -99 -47q-45 0 -98 21q-55 20 -90 20q-18 0 -68 -35zM239 219q0 -125 46 -159q12 0 31 18q18 16 53 55t67 88q33 48 64 101q59 108 88 213l41 188q-49 45 -104 45q-97 0 -158.5 -92t-92.5 -221 q-16 -70 -24 -121q-11 -53 -11 -115z" />
<glyph unicode="&#xe4;" horiz-adv-x="776" d="M57 244q0 51 8 102q6 50 21 107q27 104 82 194q53 91 139 150q86 57 205 57q33 0 51 -2q17 -4 41 -12l43 -25l5 15h139l-37 -203l-25 -145l-30 -216l-13 -135q0 -59 9 -63l6 10q4 4 14 19q2 4 14 22l21 47l26 70l70 -53q-53 -119 -92 -168q-45 -71 -127 -71q-33 0 -57 48 q-27 47 -27 135l4 51l8 88q-14 -24 -28 -51q-17 -26 -37 -55q-37 -53 -66 -84q-28 -33 -67 -66q-76 -66 -152 -66q-72 11 -111 101q-14 37 -25 90q-12 54 -12 109zM229 1207q0 45 31 77q35 31 80 31q47 -8 70 -39q22 -33 22 -74t-28 -73q-29 -35 -80 -35q-45 8 -70 41 t-25 72zM239 219q0 -125 46 -159q12 0 31 18q18 16 53 55t67 88q33 48 64 101q59 108 88 213l41 188q-49 45 -104 45q-97 0 -158.5 -92t-92.5 -221q-16 -70 -24 -121q-11 -53 -11 -115zM484 1207q0 43 30 75q31 33 74 33q49 -6 72 -37q20 -31 20 -76q0 -36 -28 -75 q-33 -33 -76 -33q-49 6 -68 39q-24 31 -24 74z" />
<glyph unicode="&#xe5;" d="M58 244q0 51 8 102q6 50 20 107q27 104 82 194q53 91 139 150q86 57 205 57q33 0 51 -2q17 -4 41 -12l43 -25l5 15h139l-37 -203l-25 -145l-30 -216l-13 -135q0 -59 9 -63l6 10q4 4 14 19q2 4 14 22l21 47l26 70l70 -53q-53 -119 -92 -168q-45 -71 -127 -71q-33 0 -57 48 q-27 47 -27 135l4 51l8 88q-14 -24 -28 -51q-17 -26 -37 -55q-37 -53 -66 -84q-28 -33 -67 -66q-76 -66 -152 -66q-72 11 -111 101q-14 37 -24 90q-12 54 -12 109zM220 1440q0 88 64 149q64 62 146 62q88 0 152 -64q61 -65 61 -149q0 -92 -63 -154q-66 -61 -148 -61 q-88 0 -150 63q-62 64 -62 154zM239 219q0 -125 46 -159q12 0 31 18q18 16 53 55t67 88q33 48 64 101q59 108 88 213l41 188q-49 45 -104 45q-97 0 -158.5 -92t-92.5 -221q-16 -70 -25 -121q-10 -53 -10 -115zM358 1438q0 -33 23 -55t53 -22q27 0 54 22q18 22 22 57 q0 33 -22 53q-21 23 -54 23q-30 0 -53 -25q-19 -16 -23 -53z" />
<glyph unicode="&#xe6;" horiz-adv-x="1067" d="M57 191l6 69l8 84q17 125 77 242q57 115 145 192q86 76 197 76l71 -8q17 -4 27 -8q10 -6 33 -21l6 -4l4 17h141q11 4 56 8t57 4q184 0 184 -195l-2 -59l-4 -53q0 -53 -18 -88q-21 -37 -60 -58q-61 -36 -164 -36l-137 10l-6 -199q0 -47 21 -65q34 -27 86 -39q102 8 149 86 l68 92l67 -43l-37 -66q-110 -189 -286 -189q-97 0 -158 58q-29 31 -43 72q-17 39 -17 88l2 86l-61 -94q-57 -86 -121 -144q-71 -66 -135 -66l-35 7q-51 18 -86 81.5t-35 162.5zM225 228q0 -134 44 -160q18 2 43 26q22 23 41 43q67 78 130.5 195t84.5 211l45 184l-39 31 q-13 8 -41 12l-37 4q-78 0 -143.5 -92t-96.5 -223q-13 -57 -21 -113q-10 -57 -10 -118zM705 449l127 -10q112 0 112 235q0 53 -14 72q-16 16 -57 16q-52 0 -90 -29q-33 -36 -50 -75q-8 -29 -14 -62q-8 -33 -8 -63z" />
<glyph unicode="&#xe7;" horiz-adv-x="565" d="M79 254l17 156q6 74 14 123q9 49 23 90q23 88 82 147q58 64 168 88l27 2l29 2q73 0 143 -49q67 -49 67 -127q0 -43 -36 -65l-15 57q4 -6 8 -14q5 -8 5 -21q0 -26 -33 -34q-62 10 -99 59q-37 47 -47 143q6 0 6 -10q1 -12 1 -23l-11 3q-82 0 -114.5 -89.5t-49.5 -234.5 l-18 -150l-3 -51q0 -127 73 -155q37 -19 80 -25q81 8 126 70l52 75l63 -36l-43 -80q-14 -41 -39.5 -70t-64.5 -54q-64 -45 -152 -45h-23l5 13l37 -19q12 -12 26 -31.5t18 -35.5q0 -82 -65 -132q-57 -40 -127 -40h-120l1 83h74q39 0 69.5 25t30.5 57l-8 9l-53 10l-81 -4 l70 80l27 4l4 8q-68 35 -104 109q-40 74 -40 182z" />
<glyph unicode="&#xe8;" horiz-adv-x="633" d="M100 213l4 70q0 147 27 260q25 113 60 175.5t67 76.5q25 14 47 22q23 6 74 16q49 8 131 8q70 0 162 24l-27 -324q0 -39 -14 -68q-14 -28 -45 -61q-31 -25 -61 -39q-33 -16 -72 -16l-51 4l-131 10l-11 -203q0 -41 17 -63q14 -25 41 -31l53 -6q61 0 98 35q29 26 57.5 67 t47.5 72l80 -39q-74 -135 -154 -197q-82 -62 -178 -62h-29q-27 7 -41 9q-88 24 -121 92q-12 27 -21.5 74t-9.5 94zM235 1284q11 23 19 35q6 10 8 14q13 25 54 25q51 0 104 -51l193 -186l-31 -66l-250 121q-86 45 -97 108zM275 449l131 -10q59 0 86 61q24 61 24 186v72h-55 q-84 0 -121 -37q-20 -24 -37 -86q-8 -29 -14 -63.5t-10 -71.5z" />
<glyph unicode="&#xe9;" horiz-adv-x="633" d="M100 213l4 70q0 147 27 260q25 113 60 175.5t67 76.5q25 14 47 22q23 6 74 16q49 8 131 8q70 0 162 24l-27 -324q0 -39 -14 -68q-14 -28 -45 -61q-31 -25 -61 -39q-33 -16 -72 -16l-51 4l-131 10l-11 -203q0 -41 17 -63q14 -25 41 -31l53 -6q61 0 98 35q29 26 57.5 67 t47.5 72l80 -39q-74 -135 -154 -197q-82 -62 -178 -62h-29q-27 7 -41 9q-88 24 -121 92q-12 27 -21.5 74t-9.5 94zM200 1155l191 183q66 57 105 57q26 0 49 -21q21 -20 21 -51q0 -28 -20 -55q-23 -29 -70 -51l-236 -121zM275 449l131 -10q59 0 86 61q24 61 24 186v72h-55 q-84 0 -121 -37q-20 -24 -37 -86q-8 -29 -14 -63.5t-10 -71.5z" />
<glyph unicode="&#xea;" horiz-adv-x="633" d="M100 213l4 70q0 147 27 260q25 113 60 175.5t67 76.5q25 14 47 22q23 6 74 16q49 8 131 8q70 0 162 24l-27 -324q0 -39 -14 -68q-14 -28 -45 -61q-31 -25 -61 -39q-33 -16 -72 -16l-51 4l-131 10l-11 -203q0 -41 17 -63q14 -25 41 -31l53 -6q61 0 98 35q29 26 57.5 67 t47.5 72l80 -39q-74 -135 -154 -197q-82 -62 -178 -62h-29q-27 7 -41 9q-88 24 -121 92q-12 27 -21.5 74t-9.5 94zM170 1080l314 241l168 -254l-46 -45l-157 123l-215 -113zM275 449l131 -10q59 0 86 61q24 61 24 186v72h-55q-84 0 -121 -37q-20 -24 -37 -86 q-8 -29 -14 -63.5t-10 -71.5z" />
<glyph unicode="&#xeb;" horiz-adv-x="633" d="M100 213l4 70q0 147 27 260q25 113 60 175.5t67 76.5q25 14 47 22q23 6 74 16q49 8 131 8q70 0 162 24l-27 -324q0 -39 -14 -68q-14 -28 -45 -61q-31 -25 -61 -39q-33 -16 -72 -16l-51 4l-131 10l-11 -203q0 -41 17 -63q14 -25 41 -31l53 -6q61 0 98 35q29 26 57.5 67 t47.5 72l80 -39q-74 -135 -154 -197q-82 -62 -178 -62h-29q-27 7 -41 9q-88 24 -121 92q-12 27 -21.5 74t-9.5 94zM229 1207q0 45 31 77q35 31 80 31q47 -8 70 -39q22 -33 22 -74t-28 -73q-29 -35 -80 -35q-45 8 -70 41t-25 72zM274 449l132 -10q59 0 86 61q24 61 24 186v72 h-55q-84 0 -121 -37q-20 -24 -37 -86q-8 -29 -14.5 -63.5t-10.5 -71.5zM484 1207q0 43 30 75q31 33 74 33q49 -6 72 -37q20 -31 20 -76q0 -36 -28 -75q-33 -33 -76 -33q-49 6 -68 39q-24 31 -24 74z" />
<glyph unicode="&#xec;" horiz-adv-x="447" d="M104 1137q10 22 19 35q6 10 8 14q13 25 54 25q51 0 104 -52l193 -186l-31 -65l-251 120q-86 45 -96 109zM106 574l60 157q19 47 57 90q48 46 99 46t80 -48q20 -45 20 -86v-32l-84 -549l-8 -53v-7q0 -4 -2 -6l-6 -6q20 0 37 31l69 125l74 -19l-59 -116q-31 -58 -76 -101 t-98 -43q-52 0 -78 41q-17 29 -23 51v48l90 587v27l2 18h8q-14 -8 -18 -14q-7 -8 -15 -27.5t-12 -27.5l-45 -121z" />
<glyph unicode="&#xed;" horiz-adv-x="447" d="M-15 1155l193 183q66 57 105 57q26 0 49 -21q21 -20 21 -51q0 -28 -21 -55q-23 -29 -70 -51l-235 -121zM106 574l60 157q19 47 57 90q48 46 99 46t80 -48q20 -45 20 -86v-32l-84 -549l-8 -53v-7q0 -4 -2 -6l-6 -6q20 0 37 31l69 125l74 -19l-59 -116q-31 -58 -76 -101 t-98 -43q-52 0 -78 41q-17 29 -23 51v48l90 587v27l2 18h9q-15 -8 -19 -14q-6 -8 -14 -27.5t-13 -27.5l-45 -121z" />
<glyph unicode="&#xee;" horiz-adv-x="447" d="M-36 1127l317 241l168 -254l-45 -45l-158 123l-215 -112zM106 574l60 157q19 47 57 90q48 46 99 46t80 -48q20 -45 20 -86v-32l-84 -549l-9 -53v-7q0 -4 -2 -6l-6 -6q21 0 37 31l70 125l74 -19l-59 -116q-31 -58 -76 -101t-98 -43q-52 0 -78 41q-17 29 -23 51v48l90 587 v27l2 18h8q-14 -8 -18 -14q-7 -8 -15 -27.5t-12 -27.5l-45 -121z" />
<glyph unicode="&#xef;" horiz-adv-x="688" d="M106 574l60 157q19 47 57 90q48 46 99 46t80 -48q20 -45 20 -86v-32l-84 -549l-9 -53v-7q0 -4 -2 -6l-6 -6q21 0 37 31l70 125l74 -19l-59 -116q-31 -58 -76 -101t-98 -43q-52 0 -78 41q-17 29 -23 51v48l90 587v27l2 18h8q-14 -8 -18 -14q-7 -8 -15 -27.5t-12 -27.5 l-45 -121zM229 1207q0 45 31 77q35 31 80 31q47 -8 70 -39q22 -33 22 -74t-28 -73q-29 -35 -80 -35q-45 8 -70 41t-25 72zM484 1207q0 43 30 75q31 33 74 33q49 -6 72 -37q20 -31 20 -76q0 -36 -28 -75q-33 -33 -76 -33q-49 6 -68 39q-24 31 -24 74z" />
<glyph unicode="&#xf0;" horiz-adv-x="1139" d="M43 516q0 275 140 426q139 152 342 152q67 0 110 -14l31 -10l-19 31q-12 16 -24 34t-35 43l-285 -129l-65 160l221 102q-45 39 -92 76q-47 35 -155 110h323q67 -49 119 -96l227 109l70 -158l-164 -82q301 -360 301 -750q0 -266 -148 -419q-149 -156 -377 -156 q-270 0 -421 207q-99 133 -99 364zM287 512q0 -180 80 -268q78 -90 196 -90q117 0 197 94q79 92 79 281q0 180 -79 272q-82 92 -203 92t-194 -92q-76 -94 -76 -289z" />
<glyph unicode="&#xf1;" d="M61 561l33 129q17 60 62 107q55 57 102 57q102 0 102 -137v-37l-45 -360l84 198q40 101 128 222q88 118 165 118q25 0 48 -12q18 -14 31.5 -49t13.5 -84v-45l-23 -180l-22 -189l-29 -217l-2 -6q8 2 18 16q11 15 19 27l69 127l80 -18l-65 -119q-70 -140 -170 -140 q-56 0 -76 41q-6 15 -12 39q-7 25 -7 52l3 47l57 458l2 41l2 39l-2 31q-14 -2 -29 -18q-14 -19 -39 -58q-59 -86 -94 -178l-145 -342q-21 -51 -45 -94q-35 -62 -56 -68q-30 0 -53 33q-29 41 -29 111l2 51l4 49l55 416l2 39l3 45q0 8 2 12q0 4 2 8q-7 0 -21 -18 q-16 -19 -20 -49l-29 -119zM123 1114q32 54 51 78q19 25 35 41q14 14 39 26.5t51 18.5q49 0 101 -22q8 -4 28 -13q21 -8 27 -10l24 8l39 17q23 16 45 43l62 -41q-16 -47 -33 -76q-16 -29 -33 -47q-34 -39 -98 -47q-45 0 -98 20q-56 21 -90 21q-19 0 -68 -35z" />
<glyph unicode="&#xf2;" horiz-adv-x="754" d="M82 361l15 123q20 98 75 186q49 80 137 139q46 27 93 41q47 12 98 12q61 -10 113 -32q49 -23 86 -62q82 -82 82 -280l-4 -95q-8 -106 -62 -210q-53 -105 -129 -158q-88 -64 -188 -64l-56 4q-129 29 -192 144q-31 53 -49 119q-19 63 -19 133zM211 1202q10 23 19 35 q6 10 8 15q12 24 53 24q51 0 105 -51l193 -186l-32 -66l-250 121q-86 45 -96 108zM244 246q0 -203 129 -203q180 0 234 353l4 63l4 53l2 49q0 101 -25 156q-27 55 -82 64l-39 4q-80 0 -129 -88q-26 -56 -45 -111q-18 -57 -33 -145q-6 -41 -12 -95q-8 -55 -8 -100z" />
<glyph unicode="&#xf3;" horiz-adv-x="754" d="M82 361l15 123q20 98 75 186q49 80 137 139q46 27 93 41q47 12 98 12q61 -10 113 -32q49 -23 86 -62q82 -82 82 -280l-4 -95q-8 -106 -62 -210q-53 -105 -129 -158q-88 -64 -188 -64l-56 4q-129 29 -192 144q-31 53 -49 119q-19 63 -19 133zM244 246q0 -203 129 -203 q180 0 234 353l4 63l4 53l2 49q0 101 -25 156q-27 55 -82 64l-39 4q-80 0 -129 -88q-26 -56 -45 -111q-18 -57 -33 -145q-6 -41 -12 -95q-8 -55 -8 -100zM299 1155l191 183q65 57 104 57q27 0 49 -21q21 -20 21 -51q0 -28 -20 -55q-23 -29 -70 -51l-236 -121z" />
<glyph unicode="&#xf4;" horiz-adv-x="754" d="M82 361l15 123q20 98 75 186q49 80 137 139q46 27 93 41q47 12 98 12q61 -10 113 -32q49 -23 86 -62q82 -82 82 -280l-4 -95q-8 -106 -62 -210q-53 -105 -129 -158q-88 -64 -188 -64l-56 4q-129 29 -192 144q-31 53 -49 119q-19 63 -19 133zM148 1137l313 242l168 -254 l-45 -45l-158 122l-215 -112zM244 246q0 -203 129 -203q180 0 234 353l4 63l4 53l2 49q0 101 -25 156q-27 55 -82 64l-39 4q-80 0 -129 -88q-26 -56 -45 -111q-18 -57 -33 -145q-6 -41 -12 -95q-8 -55 -8 -100z" />
<glyph unicode="&#xf5;" horiz-adv-x="754" d="M63 1114q33 54 51 78q19 25 36 41q14 14 38.5 26.5t51.5 18.5q49 0 100 -22q8 -4 29 -13q20 -8 27 -10l24 8l39 17q23 16 45 43l61 -41q-16 -47 -32.5 -76t-32.5 -47q-35 -39 -98 -47q-45 0 -99 20q-55 21 -90 21q-18 0 -67 -35zM82 361l14 123q20 98 76 186 q49 80 137 139q46 27 93 41q47 12 98 12q61 -10 113 -32q49 -23 86 -62q82 -82 82 -280l-4 -95q-8 -106 -62 -210q-53 -105 -129 -158q-88 -64 -188 -64l-56 4q-129 29 -192 144q-31 53 -50 119q-18 63 -18 133zM244 246q0 -203 129 -203q180 0 234 353l4 63l4 53l2 49 q0 101 -25 156q-27 55 -82 64l-39 4q-80 0 -129 -88q-26 -56 -45 -111q-18 -57 -33 -145q-6 -41 -12 -95q-8 -55 -8 -100z" />
<glyph unicode="&#xf6;" horiz-adv-x="754" d="M82 361l15 123q20 98 75 186q49 80 137 139q46 27 93 41q47 12 98 12q61 -10 113 -32q49 -23 86 -62q82 -82 82 -280l-4 -95q-8 -106 -62 -210q-53 -105 -129 -158q-88 -64 -188 -64l-56 4q-129 29 -192 144q-31 53 -49 119q-19 63 -19 133zM176 1110q0 45 31 78 q35 31 80 31q47 -8 70 -39q22 -33 22 -74t-29 -74q-28 -34 -79 -34q-45 8 -70 40.5t-25 71.5zM244 246q0 -203 129 -203q180 0 234 353l4 63l4 53l2 49q0 101 -25 156q-27 55 -82 64l-39 4q-80 0 -129 -88q-26 -56 -45 -111q-18 -57 -33 -145q-6 -41 -12 -95q-8 -55 -8 -100 zM430 1127q0 43 31 75q31 33 74 33q49 -6 71 -37q21 -30 21 -75q0 -37 -29 -76q-33 -33 -76 -33q-49 6 -67 39q-25 31 -25 74z" />
<glyph unicode="&#xf7;" horiz-adv-x="1125" d="M47 609v229h1030v-229h-1030zM428 289v266h267v-266h-267zM428 891v266h267v-266h-267z" />
<glyph unicode="&#xf8;" horiz-adv-x="772" d="M117 361l12 118q31 150 119 275q86 125 234 125q47 0 81 -14l54 -25l28 55l84 -20l-41 -82q119 -109 119 -332q0 -70 -8 -117t-35 -110q-39 -113 -127 -193t-205 -80l-63 4l-45 14l-27 -65l-80 51l29 62q-27 24 -49 55q-23 29 -41 70q-39 94 -39 209zM283 287 q0 -45 4 -70q2 -24 12 -63l285 620q-16 11 -41 15l-45 4q-51 0 -88 -43q-39 -45 -64 -113q-4 -14 -18 -74q-16 -61 -29 -114q-8 -62 -12 -94q-4 -35 -4 -68zM361 68l43 -17l32 -6q84 0 133.5 108.5t67.5 254.5q12 84 12 172q0 55 -10 106z" />
<glyph unicode="&#xf9;" d="M69 553l50 121q27 72 74 123q24 27 53 41q27 12 55 12q54 0 74 -31q18 -32 18 -81l-2 -37l-2 -37l-73 -451l-9 -78l5 -30q22 0 67 57q60 78 131 188l127 209l55 287h155l-78 -592l-10 -76l-9 -71q0 -13 -2 -27q13 6 25 25q10 18 30 57l51 72l64 -37l-43 -86 q-84 -162 -176 -162q-21 0 -54 16l-16 20q-10 11 -12 25q-4 9 -6 21q-5 12 -7 20l-6 46l2 18l2 18l23 242l-51 -82q-105 -164 -189 -246q-86 -82 -143 -82l-35 6q-43 16 -56 111l8 90l70 473v41q0 17 4 23q4 4 8 6q-18 0 -34 -39l-51 -139zM184 1307q10 22 19 35q6 10 8 14 q12 25 53 25q52 0 105 -52l192 -186l-30 -66l-251 121q-86 45 -96 109z" />
<glyph unicode="&#xfa;" d="M69 553l50 121q27 72 74 123q24 27 53 41q27 12 55 12q54 0 74 -31q18 -32 18 -81l-2 -37l-2 -37l-73 -451l-9 -78l5 -30q22 0 67 57q60 78 131 188l127 209l55 287h155l-78 -592l-10 -76l-9 -71q0 -13 -2 -27q13 6 25 25q10 18 30 57l51 72l64 -37l-43 -86 q-84 -162 -176 -162q-21 0 -54 16l-16 20q-10 11 -12 25q-4 9 -6 21q-5 12 -7 20l-6 46l2 18l2 18l23 242l-51 -82q-105 -164 -189 -246q-86 -82 -143 -82l-35 6q-43 16 -56 111l8 90l70 473v41q0 17 4 23q4 4 8 6q-18 0 -34 -39l-51 -139zM268 1106l191 182q66 58 104 58 q27 0 50 -21q20 -20 20 -51q0 -29 -20 -55q-23 -29 -70 -51l-236 -121z" />
<glyph unicode="&#xfb;" d="M69 553l50 121q27 72 74 123q24 27 53 41q27 12 55 12q54 0 74 -31q18 -32 18 -81l-2 -37l-2 -37l-73 -451l-9 -78l5 -30q22 0 67 57q60 78 131 188l127 209l55 287h155l-78 -592l-10 -76l-9 -71q0 -13 -2 -27q13 6 25 25q10 18 30 57l51 72l64 -37l-43 -86 q-84 -162 -176 -162q-21 0 -54 16l-16 20q-10 11 -12 25q-4 9 -6 21q-5 12 -7 20l-6 46l2 18l2 18l23 242l-51 -82q-105 -164 -189 -246q-86 -82 -143 -82l-35 6q-43 16 -56 111l8 90l70 473v41q0 17 4 23q4 4 8 6q-18 0 -34 -39l-51 -139zM186 1241l314 242l168 -254 l-45 -45l-158 123l-215 -113z" />
<glyph unicode="&#xfc;" d="M69 553l50 121q27 72 74 123q24 27 53 41q27 12 55 12q54 0 74 -31q18 -32 18 -81l-2 -37l-2 -37l-73 -451l-9 -78l5 -30q22 0 67 57q60 78 131 188l127 209l55 287h155l-78 -592l-10 -76l-9 -71q0 -13 -2 -27q13 6 25 25q10 18 30 57l51 72l64 -37l-43 -86 q-84 -162 -176 -162q-21 0 -54 16l-16 20q-10 11 -12 25q-4 9 -6 21q-5 12 -7 20l-6 46l2 18l2 18l23 242l-51 -82q-105 -164 -189 -246q-86 -82 -143 -82l-35 6q-43 16 -56 111l8 90l70 473v41q0 17 4 23q4 4 8 6q-18 0 -34 -39l-51 -139zM188 1127q0 45 31 77q35 31 80 31 q47 -8 69.5 -39.5t22.5 -72.5t-28 -74q-29 -35 -80 -35q-45 8 -70 41t-25 72zM541 1143q0 43 30.5 76t73.5 33q50 -7 71.5 -37.5t21.5 -75.5q0 -37 -29 -76q-33 -33 -76 -33q-49 7 -68 39q-24 31 -24 74z" />
<glyph unicode="&#xfd;" horiz-adv-x="834" d="M22 -363l15 37q2 2 2 4q10 15 37 27q76 -12 133 -72q43 -53 55 -102q56 6 105 51q63 57 92 141t29 174l57 339l-47 -80q-41 -74 -104.5 -139.5t-126.5 -65.5q-25 0 -43 8q-41 12 -64 56q-25 41 -25 110l6 58l68 458l2 23v22q0 13 6 21q4 8 6 8q-10 -10 -12 -14 q-13 -23 -19 -58l-14 -82l-80 33l16 82q21 82 67 133q43 49 94 49q55 0 80 -57q8 -18 12 -43q4 -27 4 -51l-2 -35l-2 -31l-66 -411l-8 -84q2 -21 2 -37v-15q-1 -3 -1 -5q0 -3 1 -5l8 -6q13 0 38.5 24.5t60.5 67.5q43 53 80 123q34 70 73 180l40 111q10 33 18 55q8 23 25 56 q14 30 24 49q11 18 31 43q18 24 45 45q35 28 100 69l-195 -1045q-14 -61 -28 -106q-17 -45 -45 -94q-54 -97 -136 -158q-45 -31 -92 -47q-49 -16 -106 -16q-86 0 -146 57q-26 24 -45 63t-25 82zM283 51q0 27 14 29q0 -14 2 -27q-2 -8 -14 -28q-2 18 -2 26zM318 1227l190 182 q66 58 105 58q26 0 49 -21q21 -20 21 -51q0 -29 -21 -55q-22 -29 -69 -52l-236 -120z" />
<glyph unicode="&#xfe;" horiz-adv-x="1139" d="M104 -439v1936h242v-473q45 39 82 58q82 34 178 34q144 0 256 -71q113 -74 169.5 -211t56.5 -295q0 -172 -60 -307q-59 -135 -184 -211t-248 -76q-43 0 -86 10t-84 27q-18 10 -39 25q-20 12 -41 31v-477h-242zM330 525q0 -99 18 -166q17 -70 56 -117q73 -86 178 -86 q106 0 184 92q75 90 75 293q0 194 -73 285q-73 87 -178 87q-100 0 -182 -94q-41 -49 -60 -120q-18 -74 -18 -174z" />
<glyph unicode="&#xff;" horiz-adv-x="695" d="M22 -363l15 37q2 2 2 4q10 15 37 27q76 -12 133 -72q43 -53 55 -102q56 6 105 51q63 57 92 141t29 174l57 339l-47 -80q-41 -74 -104.5 -139.5t-126.5 -65.5q-25 0 -43 8q-41 12 -64 56q-25 41 -25 110l6 58l68 458l2 23v22q0 13 6 21q4 8 6 8q-10 -10 -12 -14 q-13 -23 -19 -58l-14 -82l-80 33l16 82q21 82 67 133q43 49 94 49q55 0 80 -57q8 -18 12 -43q4 -27 4 -51l-2 -35l-2 -31l-66 -411l-8 -84q2 -21 2 -37v-15q-1 -3 -1 -5q0 -3 1 -5l8 -6q13 0 38.5 24.5t60.5 67.5q43 53 80 123q34 70 73 180l40 111q10 33 18 55q8 23 25 56 q14 30 24 49q11 18 31 43q18 24 45 45q35 28 100 69l-195 -1045q-14 -61 -28 -106q-17 -45 -45 -94q-54 -97 -136 -158q-45 -31 -92 -47q-49 -16 -106 -16q-86 0 -146 57q-26 24 -45 63t-25 82zM205 1331q0 46 31 78q35 31 80 31q47 -8 69 -39q23 -33 23 -74t-29 -73 q-29 -35 -80 -35q-45 8 -69.5 41t-24.5 71zM283 51q0 27 14 29q0 -14 2 -27q-2 -8 -14 -28q-2 18 -2 26zM459 1315q0 43 30.5 76t73.5 33q50 -7 71.5 -37.5t21.5 -75.5q0 -37 -29 -76q-33 -33 -76 -33q-49 7 -67 39q-25 31 -25 74z" />
<glyph unicode="&#x152;" horiz-adv-x="1813" d="M104 733q0 187 74 361q74 172 199 303q66 68 139 121q74 52 156 88q166 76 352 76q176 0 326 -60q129 -47 221 -129q31 39 76 76q57 47 145 80t172 33q99 0 183 -33q94 -33 159 -103q66 -69 66 -165q0 -35 -12 -54q-15 -20 -35 -26q-94 0 -137 67q-19 25 -31 64 q-12 37 -17 74l7 53l-62 24q-29 7 -53.5 11t-52.5 4q-95 0 -162 -52q-70 -51 -113 -143q-16 -41 -28 -90q-13 -51 -13 -92q0 -57 17 -107q14 -49 43 -92q18 -24 82 -51q63 -23 127 -23l120 7v-88h-131q-49 0 -125 16l-84 29q-98 -47 -157 -172q-33 -66 -52 -138 q-18 -71 -18 -143l8 -74q17 -112 68 -190q26 -39 59 -68q31 -28 72 -48q80 -39 194 -52q123 0 228 56q104 54 164 151q34 53 52.5 107.5t18.5 129.5h82q-14 -168 -76.5 -278.5t-187.5 -188.5q-61 -37 -137 -57q-78 -23 -164 -23t-147 12q-64 11 -123 37q-62 25 -99 48 q-37 20 -67 49q-29 -19 -66 -39q-39 -21 -90 -44q-53 -24 -108 -36q-58 -15 -115 -15l-86 -2q-197 0 -344 43q-150 44 -248 128q-100 82 -162 204q-31 60 -52 125q-22 66 -38 152q-5 16 -7 43q-4 27 -10 104zM305 750l2 -76q0 -45 10 -98q8 -54 41 -152q31 -100 105 -192 q68 -84 180 -141q60 -29 127 -45q68 -19 140 -19q102 0 204 27q84 24 158 65q16 8 33 18q28 19 45 35q-23 51 -41 109q-25 74 -25 164q0 102 27 186q27 82 80 170q86 131 233 174q-47 47 -82 105q-41 77 -51 184l4 45l2 29q-96 100 -151 143q-62 49 -150 80t-213 31h-20 l-31 -2q-72 0 -133 -18q-61 -21 -125 -62q-119 -70 -199 -187q-79 -119 -129 -270q-21 -76 -31 -148.5t-10 -154.5z" />
<glyph unicode="&#x153;" horiz-adv-x="1133" d="M86 361q19 188 111 346q90 155 272 155q78 0 156 -47q24 -14 42.5 -32.5t37.5 -42.5q37 47 73 65q37 19 82 28q43 8 93 8h61l49 3q23 0 45 4l68 17l-27 -324q0 -41 -14 -72q-17 -30 -49 -61q-33 -27 -68 -41t-74 -14l-39 4l-131 12l-9 -201q0 -43 18 -65q28 -23 84 -35 q98 8 151 82l66 92l70 -45l-81 -127q-39 -57 -106 -91q-70 -35 -137 -35q-84 0 -138 46q-40 33 -59 72q-96 -101 -237 -101q-150 0 -232 125q-39 62 -57 129q-21 68 -21 146zM244 248q0 -205 121 -205q198 0 246 350l4 66l4 53l2 45q0 205 -111 224l-39 4q-80 0 -125 -88 q-26 -52 -45 -115q-20 -66 -32 -141l-15 -88q-10 -68 -10 -105zM779 453l131 -10q69 0 92 63q23 64 23 168l-1 16v72h-92q-147 0 -147 -258z" />
<glyph unicode="&#x178;" horiz-adv-x="860" d="M-86 1348q0 92 41 176q39 84 115 137q74 53 162 53q92 0 176 -59q84 -55 160 -215q67 -147 114 -350l33 69q57 117 115 211q51 82 121 168q63 78 135 123q69 43 147 58h23q55 0 96 -35q39 -37 39 -97q0 -53 -35 -90q-37 -47 -88 -47q-109 0 -145 133q0 -6 2 -10h16 l-12 -4q-80 -33 -176 -174q-102 -160 -192 -350l-54 -123l-127 -852l76 -10l141 -15l-27 -88q-84 12 -166 18t-133 6q-94 0 -153 -6q-82 -14 -129 -20l-9 84q78 14 107 19q74 12 119 12l131 846q-15 98 -51 231q-25 109 -82 227q-43 95 -111 162q-63 58 -133 58 q-37 0 -68 -35q-39 -35 -67 -96q-17 -41 -21 -68q-6 -29 -6 -55q0 -27 15 -78l38 -86l-78 -31q-29 53 -43 105q-16 51 -16 98zM563 1872q0 45 31 78q35 31 80 31q47 -9 70 -39q23 -33 23 -74t-29 -74q-29 -35 -80 -35q-45 9 -70 41q-25 33 -25 72zM785 1872q0 43 30 76 q31 33 74 33q49 -6 72 -37q21 -31 21 -76q0 -37 -29 -76q-33 -33 -76 -33q-49 7 -68 39q-24 31 -24 74z" />
<glyph unicode="&#x2c6;" horiz-adv-x="1518" d="M210 1004l315 241l167 -254l-45 -45l-157 123l-215 -112z" />
<glyph unicode="&#x2dc;" horiz-adv-x="2263" d="M145 1026q33 54 51 78q19 25 36 41q14 14 38.5 26.5t51.5 18.5q49 0 100 -22q8 -4 29 -13q20 -8 26 -10l25 8l39 17q22 16 45 43l61 -41q-16 -47 -32.5 -76t-32.5 -47q-35 -39 -98 -47q-45 0 -99 20q-55 21 -90 21q-18 0 -67 -35z" />
<glyph unicode="&#x2000;" horiz-adv-x="1294" />
<glyph unicode="&#x2001;" horiz-adv-x="2589" />
<glyph unicode="&#x2002;" horiz-adv-x="1294" />
<glyph unicode="&#x2003;" horiz-adv-x="2589" />
<glyph unicode="&#x2004;" horiz-adv-x="863" />
<glyph unicode="&#x2005;" horiz-adv-x="647" />
<glyph unicode="&#x2006;" horiz-adv-x="431" />
<glyph unicode="&#x2007;" horiz-adv-x="431" />
<glyph unicode="&#x2008;" horiz-adv-x="323" />
<glyph unicode="&#x2009;" horiz-adv-x="517" />
<glyph unicode="&#x200a;" horiz-adv-x="143" />
<glyph unicode="&#x2010;" horiz-adv-x="815" d="M139 553l27 166h680l-22 -166h-685z" />
<glyph unicode="&#x2011;" horiz-adv-x="815" d="M139 553l27 166h680l-22 -166h-685z" />
<glyph unicode="&#x2012;" horiz-adv-x="815" d="M139 553l27 166h680l-22 -166h-685z" />
<glyph unicode="&#x2013;" horiz-adv-x="1506" d="M149 541l31 164h1379l-29 -164h-1381z" />
<glyph unicode="&#x2014;" horiz-adv-x="2081" d="M157 541l30 164h1919l-27 -164h-1922z" />
<glyph unicode="&#x2018;" horiz-adv-x="387" d="M254 1358q0 158 49 238q47 77 136 77q43 -6 68.5 -38.5t25.5 -83.5q0 -76 -68 -119q-14 -8 -31 -12q-16 -5 -32 -9q-41 4 -68 25q-16 16 -18 16q4 -20 10 -41q2 6 4 13q2 4 6 8v-31q-2 -22 -2 -59q0 -90 29 -205l-74 -53q-35 161 -35 274z" />
<glyph unicode="&#x2019;" horiz-adv-x="387" d="M235 1131q60 67 101 137q39 68 55 129l-16 -4q-49 10 -74 33q-30 28 -41 96q0 59 37 102q37 41 92 41q52 -10 78 -37q37 -30 37 -79q0 -134 -57 -256q-31 -68 -68 -115q-37 -49 -102 -109z" />
<glyph unicode="&#x201a;" horiz-adv-x="455" d="M72 -156q45 16 68 33q20 16 32 37q19 39 25 84h-93v271h255v-195q0 -140 -35 -209q-23 -43 -62 -78q-41 -37 -108 -70z" />
<glyph unicode="&#x201c;" horiz-adv-x="668" d="M243 1141q39 39 66 74q25 35 52 84q24 49 37 102l-19 -4q-63 10 -88 51q-17 27 -23 76q0 61 37 104q35 41 91 41q20 0 40 -8q19 -10 37 -26q27 -31 39 -78l4 -39q0 -101 -65 -232q-35 -69 -72 -118.5t-100 -104.5zM531 1137q111 135 148 258l-7 -2q-57 8 -80 35 q-14 12 -27 39q-12 26 -18 53q0 26 10 53q8 27 27 49q43 43 96 43q113 0 113 -155q0 -50 -16 -105q-16 -57 -46 -121q-32 -63 -69 -112q-45 -58 -107 -109z" />
<glyph unicode="&#x201d;" horiz-adv-x="660" d="M243 1141q39 39 68 78q27 37 52 84q22 45 35 88l-13 -2q-22 4 -43.5 16t-36.5 27q-27 33 -33 94q0 55 35 100q33 43 91 43q49 -10 79 -36q17 -19 27 -37q8 -19 8 -43q0 -138 -59 -260q-29 -62 -68 -115q-41 -55 -106 -115zM531 1137q111 135 148 248l-15 -4 q-53 10 -74 49q-8 12 -18 43q-11 28 -17 57q10 64 35 96q35 39 90 39q41 0 78 -32q16 -19 27 -37q8 -21 8 -43q0 -140 -58 -260q-32 -68 -67 -115q-41 -55 -113 -117z" />
<glyph unicode="&#x201e;" horiz-adv-x="682" d="M27 -187q47 21 65 36q19 14 35 41q15 24 21 80h-93v270h257v-197q0 -137 -35 -207q-23 -45 -62 -80q-41 -35 -110 -68zM336 -189q49 23 67.5 37.5t35.5 43.5q14 26 20 78h-93v270h255v-197q0 -137 -35 -207q-25 -47 -61 -80q-39 -35 -109 -68z" />
<glyph unicode="&#x2022;" horiz-adv-x="512" d="M241 619q0 47 36 86q30 39 86 39q49 0 77.5 -37t28.5 -90q0 -52 -37 -92q-32 -41 -82 -41q-53 0 -79 43q-17 16 -23 38q-7 23 -7 54z" />
<glyph unicode="&#x2026;" horiz-adv-x="1121" d="M139 90q0 56 39 97q33 41 91 41q45 0 81 -43q31 -37 31 -95q0 -24 -9 -45q-10 -20 -30 -45q-37 -43 -86 -43q-51 0 -84 41q-33 39 -33 92zM516 92q0 29 11 54q8 22 28 43q41 39 88 39q49 0 84 -43q29 -35 29 -95q0 -49 -37 -90q-37 -43 -86 -43q-51 0 -88 43 q-29 41 -29 92zM890 90q0 54 38 97q39 41 90 41t84 -41q33 -43 33 -97q0 -22 -10 -47q-13 -26 -31 -45q-21 -21 -41 -31q-23 -10 -47 -10q-51 0 -84 41q-32 39 -32 92z" />
<glyph unicode="&#x202f;" horiz-adv-x="517" />
<glyph unicode="&#x2039;" horiz-adv-x="682" d="M55 527l336 487h218l-281 -487l281 -486h-217z" />
<glyph unicode="&#x203a;" horiz-adv-x="682" d="M73 41l284 488l-284 485h218l326 -477l-324 -496h-220z" />
<glyph unicode="&#x205f;" horiz-adv-x="647" />
<glyph unicode="&#x2122;" horiz-adv-x="1587" d="M149 1213l52 51l49 -35l18 55q4 13 4 23q-2 8 -4 12q29 8 111 8h28l-80 -538q0 -29 -102 -29l-12 -96h352l8 90q-37 0 -55 4q-21 2 -25 6q-6 4 -6 23l78 544q48 0 101 9q16 0 33 2l7 -29l-2 -29l-2 -67h86l47 272q-46 -35 -112.5 -43t-218.5 -8h-63h-50q-161 0 -204 16 l-27 -241h-11zM690 664l6 96q72 0 88 6q14 4 14 21l78 536v19l2 6q-16 2 -43 4h-51l13 94l115 -8l49 4l84 4l170 -530l102 164q164 270 195 333l26 33l68 -4l43 -4l45 4l88 4l-12 -94h-47q-39 0 -47.5 -4t-8.5 -29l-75 -536v-15l24 -6q25 -6 64 -6l-13 -92l-98 4l-72 4 l-176 -10l12 98q99 0 99 27l49 352l-295 -483h-59l-162 491l-54 -366l5 -15q10 -2 28 -6q19 -4 62 -4l-12 -92l-89 4l-61 4l-62 -4z" />
<glyph unicode="&#x25fc;" horiz-adv-x="865" d="M0 0v865h865v-865h-865z" />
</font>
</defs>
</svg>
